<svg version="1.1" viewBox="0.0 0.0 960.0 540.0" fill="none" stroke="none" stroke-linecap="square" stroke-miterlimit="10" xmlns:xlink="http://www.w3.org/1999/xlink" xmlns="http://www.w3.org/2000/svg"><clipPath id="p.0"><path d="m0 0l960.0 0l0 540.0l-960.0 0l0 -540.0z" clip-rule="nonzero"/></clipPath><g clip-path="url(#p.0)"><path fill="#000000" fill-opacity="0.0" d="m0 0l960.0 0l0 540.0l-960.0 0z" fill-rule="evenodd"/><path fill="#000000" fill-opacity="0.0" d="m78.74678 152.47392l881.2599 0l0 26.582672l-881.2599 0z" fill-rule="evenodd"/><path fill="#000000" d="m253.55638 169.00089q0.3125 -2.578125 1.421875 -4.65625q1.1093903 -2.078125 2.7343903 -3.109375q1.625 -1.03125 3.578125 -0.984375q2.828125 0.0625 4.34375 2.0625l1.625 -8.828125l2.828125 0l-4.15625 24.0l-2.578125 0l0.296875 -1.8125q-2.0 2.1875 -4.9375 2.125q-2.34375 -0.0625 -3.7343903 -1.828125q-1.390625 -1.78125 -1.5 -4.765625q-0.046875 -0.921875 0.078125 -2.203125zm2.7187653 1.625q-0.046875 2.234375 0.796875 3.46875q0.84375 1.234375 2.46875 1.265625q2.453125 0.109375 4.359375 -2.46875l1.34375 -7.8125q-0.9375 -2.3125 -3.40625 -2.375q-1.671875 -0.046875 -2.953125 1.015625q-1.265625 1.046875 -1.9375 2.953125q-0.65625 1.890625 -0.671875 3.953125zm17.1875 6.859375l-2.8125 0l2.9375 -16.90625l2.8125 0l-2.9375 16.90625zm2.328125 -23.078125q0.71875 -0.03125 1.1875 0.4375q0.484375 0.453125 0.484375 1.203125q-0.015625 0.734375 -0.484375 1.203125q-0.453125 0.46875 -1.1875 0.5q-0.734375 0.03125 -1.203125 -0.421875q-0.46875 -0.453125 -0.453125 -1.1875q0.015625 -0.734375 0.46875 -1.21875q0.453125 -0.484375 1.1875 -0.515625zm3.109375 14.59375q0.3125 -2.578125 1.421875 -4.65625q1.109375 -2.078125 2.734375 -3.109375q1.625 -1.03125 3.578125 -0.984375q2.828125 0.0625 4.34375 2.0625l1.625 -8.828125l2.828125 0l-4.15625 24.0l-2.578125 0l0.296875 -1.8125q-2.0 2.1875 -4.9375 2.125q-2.34375 -0.0625 -3.734375 -1.828125q-1.390625 -1.78125 -1.5 -4.765625q-0.046875 -0.921875 0.078125 -2.203125zm2.71875 1.625q-0.046875 2.234375 0.796875 3.46875q0.84375 1.234375 2.46875 1.265625q2.453125 0.109375 4.359375 -2.46875l1.34375 -7.8125q-0.9375 -2.3125 -3.40625 -2.375q-1.671875 -0.046875 -2.953125 1.015625q-1.265625 1.046875 -1.9375 2.953125q-0.65625 1.890625 -0.671875 3.953125zm16.203125 3.578125q0.765625 -0.015625 1.265625 0.46875q0.5 0.484375 0.484375 1.25q-0.015625 0.765625 -0.515625 1.25q-0.5 0.46875 -1.25 0.5q-0.75 0.03125 -1.234375 -0.421875q-0.484375 -0.46875 -0.484375 -1.234375q0 -0.765625 0.484375 -1.265625q0.484375 -0.515625 1.25 -0.546875zm2.0 -14.0q0.765625 -0.015625 1.265625 0.46875q0.5 0.484375 0.484375 1.25q-0.015625 0.765625 -0.515625 1.25q-0.5 0.46875 -1.25 0.5q-0.75 0.03125 -1.234375 -0.421875q-0.484375 -0.46875 -0.484375 -1.234375q0 -0.765625 0.484375 -1.265625q0.484375 -0.515625 1.25 -0.546875z" fill-rule="nonzero"/><path fill="#ff0000" d="m310.6814 166.73526l4.59375 -6.15625l3.46875 0l-6.78125 8.5l4.125 8.40625l-3.078125 0l-2.796875 -6.3125l-4.765625 6.3125l-3.453125 0l6.984375 -8.6875l-4.0 -8.21875l3.09375 0l2.609375 6.15625zm14.34375 6.484375l6.015625 -12.640625l3.125 0l-10.03125 19.71875q-2.09375 4.109375 -5.375 4.0625q-0.578125 -0.015625 -1.703125 -0.28125l0.25 -2.34375l0.734375 0.078125q1.34375 0.0625 2.3125 -0.609375q0.984375 -0.65625 1.734375 -2.140625l1.015625 -1.9375l-2.921875 -16.546875l2.953125 0l1.890625 12.640625zm11.953125 1.90625l9.5 0l-0.421875 2.359375l-13.03125 0l0.390625 -2.265625l11.078125 -12.25l-8.828125 0l0.4375 -2.390625l12.4375 0l-0.375 2.1875l-11.1875 12.359375z" fill-rule="nonzero"/><path fill="#000000" d="m351.4314 174.20401q0.765625 -0.015625 1.265625 0.46875q0.5 0.484375 0.484375 1.25q-0.015625 0.765625 -0.515625 1.25q-0.5 0.46875 -1.25 0.5q-0.75 0.03125 -1.234375 -0.421875q-0.484375 -0.46875 -0.484375 -1.234375q0 -0.765625 0.484375 -1.265625q0.484375 -0.515625 1.25 -0.546875zm2.0 -14.0q0.765625 -0.015625 1.265625 0.46875q0.5 0.484375 0.484375 1.25q-0.015625 0.765625 -0.515625 1.25q-0.5 0.46875 -1.25 0.5q-0.75 0.03125 -1.234375 -0.421875q-0.484375 -0.46875 -0.484375 -1.234375q0 -0.765625 0.484375 -1.265625q0.484375 -0.515625 1.25 -0.546875z" fill-rule="nonzero"/><path fill="#4a86e8" d="m367.3689 177.48526q-0.109375 -0.453125 -0.109375 -0.890625l0.046875 -0.890625q-2.328125 2.15625 -4.9375 2.09375q-2.234375 -0.03125 -3.640625 -1.40625q-1.390625 -1.390625 -1.265625 -3.46875q0.15625 -2.6875 2.34375 -4.1875q2.203125 -1.515625 5.78125 -1.515625l2.953125 0.015625l0.1875 -1.34375q0.15625 -1.515625 -0.59375 -2.390625q-0.734375 -0.890625 -2.21875 -0.921875q-1.453125 -0.03125 -2.578125 0.71875q-1.109375 0.734375 -1.359375 1.953125l-2.84375 0.015625q0.140625 -1.484375 1.15625 -2.625q1.015625 -1.15625 2.609375 -1.78125q1.59375 -0.640625 3.296875 -0.609375q2.640625 0.0625 4.109375 1.609375q1.46875 1.53125 1.234375 4.078125l-1.375 8.375l-0.078125 1.203125q-0.03125 0.859375 0.1875 1.703125l-0.03125 0.265625l-2.875 0zm-4.4375 -2.1875q1.359375 0.03125 2.5625 -0.640625q1.21875 -0.6875 2.09375 -1.890625l0.609375 -3.484375l-2.140625 -0.015625q-2.671875 0 -4.09375 0.84375q-1.421875 0.84375 -1.609375 2.390625q-0.140625 1.1875 0.546875 1.984375q0.703125 0.78125 2.03125 0.8125zm26.484375 -6.1875q-0.3125 2.59375 -1.421875 4.671875q-1.109375 2.078125 -2.6875 3.078125q-1.578125 1.0 -3.5 0.953125q-3.0625 -0.0625 -4.546875 -2.296875l-0.578125 1.96875l-2.609375 0l4.171875 -24.0l2.828125 0l-1.703125 8.96875q2.03125 -2.25 4.9375 -2.1875q2.4375 0.0625 3.796875 1.796875q1.359375 1.734375 1.4375 4.78125q0.015625 1.0 -0.09375 1.9375l-0.03125 0.328125zm-2.6875 -1.640625q0.046875 -2.28125 -0.765625 -3.484375q-0.8125 -1.21875 -2.484375 -1.28125q-2.640625 -0.0625 -4.46875 2.65625l-1.265625 7.359375q0.9375 2.578125 3.515625 2.640625q1.65625 0.0625 2.890625 -0.984375q1.25 -1.046875 1.890625 -2.921875q0.640625 -1.890625 0.6875 -3.984375zm12.0625 7.984375q1.515625 0.03125 2.734375 -0.875q1.21875 -0.921875 1.59375 -2.40625l2.671875 -0.015625q-0.234375 1.59375 -1.28125 2.90625q-1.03125 1.3125 -2.609375 2.046875q-1.578125 0.734375 -3.234375 0.6875q-2.109375 -0.03125 -3.578125 -1.09375q-1.453125 -1.078125 -2.140625 -2.984375q-0.6875 -1.921875 -0.46875 -4.3125l0.078125 -0.78125q0.296875 -2.4375 1.421875 -4.359375q1.125 -1.921875 2.9375 -2.984375q1.8125 -1.078125 4.0 -1.015625q2.65625 0.0625 4.25 1.78125q1.59375 1.71875 1.59375 4.359375l-2.640625 -0.015625q-0.03125 -1.65625 -0.921875 -2.671875q-0.890625 -1.03125 -2.40625 -1.09375q-2.203125 -0.046875 -3.671875 1.640625q-1.453125 1.6875 -1.8125 4.71875l-0.046875 0.40625q-0.09375 1.0 -0.03125 2.0625q0.109375 1.828125 1.03125 2.890625q0.921875 1.0625 2.53125 1.109375zm10.078125 -6.453125q0.3125 -2.578125 1.421875 -4.65625q1.109375 -2.078125 2.734375 -3.109375q1.625 -1.03125 3.578125 -0.984375q2.828125 0.0625 4.34375 2.0625l1.625 -8.828125l2.828125 0l-4.15625 24.0l-2.578125 0l0.296875 -1.8125q-2.0 2.1875 -4.9375 2.125q-2.34375 -0.0625 -3.734375 -1.828125q-1.390625 -1.78125 -1.5 -4.765625q-0.046875 -0.921875 0.078125 -2.203125zm2.71875 1.625q-0.046875 2.234375 0.796875 3.46875q0.84375 1.234375 2.46875 1.265625q2.453125 0.109375 4.359375 -2.46875l1.34375 -7.8125q-0.9375 -2.3125 -3.40625 -2.375q-1.671875 -0.046875 -2.953125 1.015625q-1.265625 1.046875 -1.9375 2.953125q-0.65625 1.890625 -0.671875 3.953125zm21.4375 7.171875q-3.15625 -0.0625 -4.9375 -2.328125q-1.78125 -2.265625 -1.5 -5.796875l0.078125 -0.671875q0.265625 -2.515625 1.484375 -4.59375q1.234375 -2.078125 3.0 -3.125q1.765625 -1.0625 3.8125 -1.015625q2.609375 0.0625 4.09375 1.734375q1.484375 1.671875 1.625 4.53125q0.046875 1.015625 -0.0625 2.03125l-0.171875 1.296875l-11.046875 0q-0.28125 2.296875 0.75 3.90625q1.046875 1.609375 3.109375 1.671875q2.5 0.0625 4.625 -2.25l1.625 1.375q-1.0625 1.53125 -2.75 2.40625q-1.671875 0.859375 -3.734375 0.828125zm1.796875 -15.171875q-1.75 -0.046875 -3.0625 1.1875q-1.296875 1.234375 -2.0625 3.671875l8.21875 0.015625l0.0625 -0.25q0.25 -1.96875 -0.640625 -3.265625q-0.875 -1.3125 -2.515625 -1.359375zm16.4375 14.859375l-2.84375 0l3.34375 -19.1875l-6.046875 2.125l0.484375 -2.75l8.4375 -3.046875l0.5 0l-3.875 22.859375zm23.0 0l-14.484375 0l0.34375 -2.203125l8.390625 -8.15625l1.53125 -1.515625q2.640625 -2.640625 2.921875 -4.875q0.203125 -1.71875 -0.671875 -2.796875q-0.875 -1.09375 -2.46875 -1.15625q-2.046875 -0.0625 -3.421875 1.203125q-1.375 1.25 -1.671875 3.4375l-2.796875 0.015625q0.203125 -2.09375 1.28125 -3.703125q1.09375 -1.625 2.859375 -2.484375q1.78125 -0.875 3.859375 -0.828125q2.828125 0.0625 4.484375 1.71875q1.671875 1.640625 1.4375 4.265625q-0.265625 3.0 -3.453125 6.3125l-1.4375 1.453125l-7.3125 6.953125l10.984375 0l-0.375 2.359375zm9.25 -12.78125l1.875 0.015625q2.0625 0 3.46875 -1.078125q1.421875 -1.09375 1.625 -2.953125q0.203125 -1.8125 -0.671875 -2.84375q-0.875 -1.046875 -2.546875 -1.078125q-1.78125 -0.03125 -3.03125 1.046875q-1.234375 1.0625 -1.515625 2.875l-2.796875 0.015625q0.265625 -2.8125 2.390625 -4.5625q2.140625 -1.765625 5.09375 -1.734375q2.859375 0.0625 4.484375 1.796875q1.640625 1.71875 1.421875 4.546875q-0.140625 1.609375 -1.234375 2.9375q-1.09375 1.328125 -3.03125 2.203125q1.546875 0.625 2.3125 1.984375q0.765625 1.34375 0.640625 3.15625q-0.25 3.078125 -2.453125 4.953125q-2.1875 1.875 -5.328125 1.8125q-2.921875 -0.0625 -4.65625 -1.8125q-1.734375 -1.75 -1.609375 -4.515625l2.828125 0.015625q-0.09375 1.75 0.84375 2.828125q0.9375 1.0625 2.71875 1.125q2.0 0.0625 3.328125 -1.140625q1.328125 -1.203125 1.515625 -3.21875q0.171875 -1.859375 -0.84375 -2.890625q-1.015625 -1.046875 -3.03125 -1.109375l-2.171875 -0.015625l0.375 -2.359375zm24.484375 5.140625l3.0625 0l-0.421875 2.359375l-3.046875 0l-0.921875 5.28125l-2.84375 0l0.921875 -5.28125l-10.0625 0l0.328125 -1.859375l12.5 -15.609375l3.09375 0l-2.609375 15.109375zm-9.59375 0l6.75 0l2.03125 -11.1875l-0.453125 0.65625l-8.328125 10.53125zm17.21875 -3.8125l2.890625 -11.296875l11.34375 0l-0.421875 2.671875l-8.90625 0l-1.75 6.21875q1.71875 -1.015625 3.71875 -0.984375q2.828125 0.03125 4.34375 2.140625q1.515625 2.09375 1.234375 5.34375q-0.296875 3.5 -2.484375 5.625q-2.1875 2.125 -5.453125 2.0625q-2.71875 -0.03125 -4.390625 -1.75q-1.671875 -1.71875 -1.765625 -4.578125l2.640625 0q0.109375 1.875 1.0625 2.90625q0.953125 1.03125 2.578125 1.0625q2.0 0.0625 3.359375 -1.421875q1.375 -1.484375 1.625 -3.890625q0.21875 -2.109375 -0.734375 -3.46875q-0.953125 -1.375 -2.796875 -1.4375q-1.140625 -0.03125 -2.03125 0.34375q-0.875 0.375 -1.75 1.078125l-2.3125 -0.625zm29.09375 -11.328125l-0.25 2.453125l-0.546875 0q-3.125 0.0625 -5.34375 1.9375q-2.21875 1.875 -3.4375 5.53125q2.125 -2.125 4.96875 -2.0625q1.796875 0.03125 3.078125 1.0q1.28125 0.953125 1.875 2.65625q0.609375 1.6875 0.421875 3.734375q-0.3125 3.453125 -2.484375 5.703125q-2.15625 2.234375 -5.3125 2.140625q-2.53125 -0.0625 -4.15625 -1.859375q-1.625 -1.796875 -1.859375 -4.8125q-0.125 -1.640625 0.390625 -4.4375q1.078125 -5.828125 4.25 -8.90625q3.1875 -3.078125 8.09375 -3.078125l0.3125 0zm-5.21875 10.25q-1.515625 -0.03125 -2.84375 0.875q-1.328125 0.90625 -2.046875 2.3125l-0.109375 1.046875l-0.03125 1.265625q0 1.28125 0.390625 2.484375q0.390625 1.203125 1.15625 1.828125q0.765625 0.625 1.796875 0.640625q1.890625 0.078125 3.234375 -1.40625q1.359375 -1.484375 1.625 -3.90625q0.15625 -1.40625 -0.171875 -2.578125q-0.328125 -1.171875 -1.09375 -1.84375q-0.75 -0.6875 -1.90625 -0.71875zm25.796875 -8.4375l-12.359375 20.96875l-3.09375 0l12.296875 -20.375l-11.875 0l0.375 -2.375l14.9375 0l-0.28125 1.78125z" fill-rule="nonzero"/><path fill="#9900ff" d="m565.77515 179.43839l-2.5625 0l13.5 -24.703125l2.546875 0l-13.484375 24.703125zm27.953064 -10.328125q-0.3125 2.578125 -1.390625 4.640625q-1.078125 2.0625 -2.671814 3.09375q-1.59375 1.015625 -3.53125 0.96875q-2.9375 -0.0625 -4.5 -1.984375l-1.515625 8.15625l-2.828125 0l4.0625 -23.40625l2.5625 -0.015625l-0.3125 1.890625q2.09375 -2.25 5.015625 -2.1875q2.437439 0.0625 3.796814 1.796875q1.359375 1.734375 1.4375 4.78125q0.015625 1.0 -0.078125 1.9375l-0.046875 0.328125zm-2.78125 -0.328125l0.078125 -1.3125q0 -2.28125 -0.87493896 -3.484375q-0.859375 -1.21875 -2.5 -1.28125q-2.453125 -0.0625 -4.234375 2.328125l-1.421875 8.109375q0.953125 2.25 3.421875 2.3125q2.109375 0.046875 3.578125 -1.640625q1.484375 -1.703125 1.953064 -5.03125zm15.390625 8.703125q-0.109375 -0.453125 -0.109375 -0.890625l0.046875 -0.890625q-2.328125 2.15625 -4.9375 2.09375q-2.234375 -0.03125 -3.640625 -1.40625q-1.390625 -1.390625 -1.265625 -3.46875q0.15625 -2.6875 2.34375 -4.1875q2.203125 -1.515625 5.78125 -1.515625l2.953125 0.015625l0.1875 -1.34375q0.15625 -1.515625 -0.59375 -2.390625q-0.734375 -0.890625 -2.21875 -0.921875q-1.453125 -0.03125 -2.578125 0.71875q-1.109375 0.734375 -1.359375 1.953125l-2.84375 0.015625q0.140625 -1.484375 1.15625 -2.625q1.015625 -1.15625 2.609375 -1.78125q1.59375 -0.640625 3.296875 -0.609375q2.640625 0.0625 4.109375 1.609375q1.46875 1.53125 1.234375 4.078125l-1.375 8.375l-0.078125 1.203125q-0.03125 0.859375 0.1875 1.703125l-0.03125 0.265625l-2.875 0zm-4.4375 -2.1875q1.359375 0.03125 2.5625 -0.640625q1.21875 -0.6875 2.09375 -1.890625l0.609375 -3.484375l-2.140625 -0.015625q-2.671875 0 -4.09375 0.84375q-1.421875 0.84375 -1.609375 2.390625q-0.140625 1.1875 0.546875 1.984375q0.703125 0.78125 2.03125 0.8125zm18.609375 -18.8125l-0.71875 4.09375l3.078125 0l-0.390625 2.234375l-3.0625 0l-1.765625 10.515625q-0.046875 0.40625 -0.015625 0.75q0.109375 1.21875 1.328125 1.21875q0.515625 0 1.375 -0.15625l-0.21875 2.359375q-1.015625 0.28125 -2.0625 0.28125q-1.6875 -0.03125 -2.53125 -1.234375q-0.84375 -1.21875 -0.65625 -3.265625l1.71875 -10.46875l-2.984375 0l0.390625 -2.234375l2.984375 0l0.71875 -4.09375l2.8125 0zm8.109375 6.15625q2.21875 -2.421875 5.109375 -2.359375q2.375 0.03125 3.515625 1.640625q1.15625 1.59375 0.859375 4.484375l-1.84375 11.078125l-2.828125 0l1.859375 -11.125q0.09375 -0.765625 0.015625 -1.421875q-0.265625 -2.1875 -2.578125 -2.234375q-2.59375 -0.0625 -4.46875 2.71875l-2.09375 12.0625l-2.828125 0l4.171875 -24.0l2.828125 0l-1.71875 9.15625zm22.53125 8.4375l-3.90625 0l-2.34375 6.40625l-2.25 0l2.328125 -6.40625l-3.59375 0l0.375 -2.140625l3.984375 0l2.0 -5.53125l-3.875 0l0.375 -2.171875l4.28125 0l2.375 -6.5l2.265625 0l-2.390625 6.5l3.921875 0l2.375 -6.5l2.28125 0l-2.390625 6.5l3.0625 0l-0.375 2.171875l-3.46875 0l-2.0 5.53125l3.375 0l-0.375 2.140625l-3.765625 0l-2.328125 6.40625l-2.28125 0l2.34375 -6.40625zm-3.15625 -2.140625l3.90625 0l2.015625 -5.53125l-3.90625 0l-2.015625 5.53125zm13.234375 8.546875l2.5625 -14.671875l-2.609375 0l0.390625 -2.234375l2.59375 0l0.28125 -2.0q0.40625 -2.546875 1.96875 -3.984375q1.640625 -1.5 4.1875 -1.46875q0.796875 0 2.015625 0.265625l-0.34375 2.359375q-0.75 -0.15625 -1.515625 -0.1875q-1.46875 0 -2.390625 0.921875q-0.90625 0.90625 -1.125 2.421875l-0.25 1.671875l3.5 0l-0.390625 2.234375l-3.5 0l-2.546875 14.671875l-2.828125 0zm20.078125 -14.328125l-1.328125 -0.140625q-2.71875 0 -4.28125 2.453125l-2.078125 12.015625l-2.828125 0l2.9375 -16.90625l2.734375 -0.015625l-0.421875 1.96875q1.796875 -2.359375 4.234375 -2.296875q0.515625 0 1.34375 0.234375l-0.3125 2.6875zm9.859375 14.328125q-0.109375 -0.453125 -0.109375 -0.890625l0.046875 -0.890625q-2.328125 2.15625 -4.9375 2.09375q-2.234375 -0.03125 -3.640625 -1.40625q-1.390625 -1.390625 -1.265625 -3.46875q0.15625 -2.6875 2.34375 -4.1875q2.203125 -1.515625 5.78125 -1.515625l2.953125 0.015625l0.1875 -1.34375q0.15625 -1.515625 -0.59375 -2.390625q-0.734375 -0.890625 -2.21875 -0.921875q-1.453125 -0.03125 -2.578125 0.71875q-1.109375 0.734375 -1.359375 1.953125l-2.84375 0.015625q0.140625 -1.484375 1.15625 -2.625q1.015625 -1.15625 2.609375 -1.78125q1.59375 -0.640625 3.296875 -0.609375q2.640625 0.0625 4.109375 1.609375q1.46875 1.53125 1.234375 4.078125l-1.375 8.375l-0.078125 1.203125q-0.03125 0.859375 0.1875 1.703125l-0.03125 0.265625l-2.875 0zm-4.4375 -2.1875q1.359375 0.03125 2.5625 -0.640625q1.21875 -0.6875 2.09375 -1.890625l0.609375 -3.484375l-2.140625 -0.015625q-2.671875 0 -4.09375 0.84375q-1.421875 0.84375 -1.609375 2.390625q-0.140625 1.1875 0.546875 1.984375q0.703125 0.78125 2.03125 0.8125zm11.96875 -6.296875q0.375 -2.765625 1.484375 -4.796875q1.125 -2.046875 2.71875 -3.015625q1.609375 -0.984375 3.515625 -0.9375q2.9375 0.0625 4.4375 2.21875l0.5625 -1.890625l2.59375 0l-2.8125 16.546875q-0.453125 3.234375 -2.625 5.171875q-2.171875 1.953125 -5.359375 1.859375q-1.71875 -0.03125 -3.296875 -0.8125q-1.5625 -0.78125 -2.46875 -2.140625l1.609375 -1.734375q1.53125 2.265625 4.046875 2.328125q2.015625 0.0625 3.40625 -1.125q1.40625 -1.1875 1.859375 -3.375l0.3125 -1.5q-2.0625 2.0625 -4.828125 2.0q-1.578125 -0.046875 -2.75 -0.84375q-1.15625 -0.8125 -1.796875 -2.328125q-0.640625 -1.53125 -0.703125 -3.40625q-0.03125 -0.921875 0.09375 -2.21875zm2.734375 1.609375q-0.046875 2.234375 0.765625 3.46875q0.828125 1.21875 2.484375 1.28125q2.53125 0.0625 4.359375 -2.484375l1.328125 -7.765625q-0.9375 -2.3125 -3.390625 -2.40625q-2.296875 -0.0625 -3.78125 1.875q-1.46875 1.9375 -1.734375 5.234375l-0.03125 0.796875zm19.59375 -10.046875l-0.359375 1.890625q2.125 -2.25 5.140625 -2.1875q1.609375 0.03125 2.71875 0.734375q1.125 0.703125 1.546875 1.984375q2.375 -2.78125 5.609375 -2.71875q2.53125 0.0625 3.734375 1.703125q1.203125 1.640625 0.890625 4.40625l-1.859375 11.109375l-2.8125 0l1.84375 -11.140625q0.09375 -0.8125 0 -1.484375q-0.296875 -2.125 -2.78125 -2.171875q-1.546875 -0.03125 -2.8125 0.96875q-1.25 0.984375 -1.609375 2.59375l-1.921875 11.234375l-2.84375 0l1.875 -11.125q0.203125 -1.734375 -0.53125 -2.671875q-0.71875 -0.9375 -2.25 -0.96875q-2.640625 -0.0625 -4.203125 2.40625l-2.140625 12.359375l-2.828125 0l2.9375 -16.90625l2.65625 -0.015625zm29.09375 17.234375q-3.15625 -0.0625 -4.9375 -2.328125q-1.78125 -2.265625 -1.5 -5.796875l0.078125 -0.671875q0.265625 -2.515625 1.484375 -4.59375q1.234375 -2.078125 3.0 -3.125q1.765625 -1.0625 3.8125 -1.015625q2.609375 0.0625 4.09375 1.734375q1.484375 1.671875 1.625 4.53125q0.046875 1.015625 -0.0625 2.03125l-0.171875 1.296875l-11.046875 0q-0.28125 2.296875 0.75 3.90625q1.046875 1.609375 3.109375 1.671875q2.5 0.0625 4.625 -2.25l1.625 1.375q-1.0625 1.53125 -2.75 2.40625q-1.671875 0.859375 -3.734375 0.828125zm1.796875 -15.171875q-1.75 -0.046875 -3.0625 1.1875q-1.296875 1.234375 -2.0625 3.671875l8.21875 0.015625l0.0625 -0.25q0.25 -1.96875 -0.640625 -3.265625q-0.875 -1.3125 -2.515625 -1.359375zm13.09375 -2.0625l-0.40625 2.140625q2.28125 -2.5 5.1875 -2.4375q2.390625 0.0625 3.53125 1.65625q1.140625 1.59375 0.84375 4.484375l-1.84375 11.078125l-2.828125 0l1.859375 -11.125q0.09375 -0.765625 0.015625 -1.421875q-0.265625 -2.1875 -2.578125 -2.234375q-2.546875 -0.046875 -4.46875 2.71875l-2.09375 12.0625l-2.828125 0l2.9375 -16.90625l2.671875 -0.015625zm19.140625 -4.078125l-0.71875 4.09375l3.078125 0l-0.390625 2.234375l-3.0625 0l-1.765625 10.515625q-0.046875 0.40625 -0.015625 0.75q0.109375 1.21875 1.328125 1.21875q0.515625 0 1.375 -0.15625l-0.21875 2.359375q-1.015625 0.28125 -2.0625 0.28125q-1.6875 -0.03125 -2.53125 -1.234375q-0.84375 -1.21875 -0.65625 -3.265625l1.71875 -10.46875l-2.984375 0l0.390625 -2.234375l2.984375 0l0.71875 -4.09375l2.8125 0z" fill-rule="nonzero"/><path fill="#000000" fill-opacity="0.0" d="m11.661417 192.90685l138.96062 0l0 86.04726l-138.96062 0z" fill-rule="evenodd"/><path fill="#000000" d="m30.544077 226.97797l-5.140625 0l-0.921875 5.3125l-0.953125 0l1.96875 -11.375l6.859377 0l-0.140625 0.8125l-5.906252 0l-0.765625 4.421875l5.15625 0l-0.15625 0.828125zm2.6171894 5.3125l-0.9375 0l1.46875 -8.453125l0.9375 0l-1.46875 8.453125zm0.796875 -10.90625q0.03125 -0.5 0.671875 -0.640625q0.296875 0.0625 0.421875 0.203125q0.140625 0.125 0.171875 0.4375q-0.078125 0.296875 -0.234375 0.4375q-0.140625 0.140625 -0.4375 0.203125q-0.625 -0.09375 -0.59375 -0.640625zm5.1328125 5.859375l2.75 -3.40625l1.15625 0l-3.46875 4.1875l2.203125 4.265625l-1.03125 0l-1.765625 -3.5625l-2.890625 3.5625l-1.140625 0l3.609375 -4.359375l-2.109375 -4.09375l1.03125 0l1.65625 3.40625zm7.40625 5.203125q-1.015625 -0.015625 -1.765625 -0.5625q-0.734375 -0.5625 -1.09375 -1.5q-0.34375 -0.953125 -0.234375 -2.0625l0.015625 -0.265625q0.109375 -1.171875 0.6875 -2.21875q0.59375 -1.0625 1.484375 -1.625q0.90625 -0.5625 1.9375 -0.53125q0.9375 0.015625 1.59375 0.515625q0.65625 0.5 0.953125 1.390625q0.296875 0.890625 0.1875 1.96875l-0.0625 0.5625l-5.859375 0l-0.015625 0.1875q-0.125 0.859375 0.109375 1.640625q0.25 0.765625 0.796875 1.234375q0.5625 0.453125 1.328125 0.46875q0.75 0.015625 1.34375 -0.296875q0.609375 -0.3125 1.125 -0.828125l0.546875 0.4375q-0.578125 0.734375 -1.359375 1.125q-0.78125 0.375 -1.71875 0.359375zm0.984375 -7.96875q-1.015625 -0.046875 -1.828125 0.71875q-0.796875 0.75 -1.203125 2.125l4.90625 0.015625l0.015625 -0.125q0.140625 -1.109375 -0.390625 -1.90625q-0.53125 -0.796875 -1.5 -0.828125zm4.125 3.5625q0.1875 -1.328125 0.734375 -2.359375q0.546875 -1.03125 1.328125 -1.53125q0.796875 -0.5 1.78125 -0.46875q0.75 0.015625 1.359375 0.34375q0.625 0.328125 0.984375 1.0l0.859375 -4.734375l0.921875 0l-2.078125 12.0l-0.875 0l0.21875 -1.125q-1.109375 1.328125 -2.734375 1.28125q-1.1875 -0.03125 -1.859375 -0.921875q-0.65625 -0.890625 -0.6875 -2.390625q-0.015625 -0.484375 0.03125 -0.9375l0.015625 -0.15625zm0.9375 0.15625q-0.0625 0.515625 -0.046875 1.109375q0.03125 1.078125 0.5 1.6875q0.46875 0.609375 1.328125 0.640625q0.859375 0.03125 1.515625 -0.390625q0.65625 -0.421875 1.109375 -1.125l0.6875 -3.984375q-0.234375 -0.765625 -0.75 -1.1875q-0.515625 -0.4375 -1.328125 -0.46875q-1.1875 -0.03125 -1.984375 0.921875q-0.78125 0.9375 -1.015625 2.625l-0.015625 0.171875zm16.585934 1.890625q0.125 -1.078125 -1.3125 -1.5625l-1.34375 -0.40625q-1.84375 -0.625 -1.75 -2.078125q0.0625 -1.0625 0.96875 -1.71875q0.921875 -0.65625 2.1875 -0.640625q1.25 0.015625 2.015625 0.703125q0.78125 0.671875 0.71875 1.8125l-0.921875 0q0.046875 -0.75 -0.46875 -1.21875q-0.515625 -0.484375 -1.375 -0.5q-0.890625 0 -1.5 0.421875q-0.609375 0.40625 -0.6875 1.09375q-0.125 1.015625 1.234375 1.421875l0.96875 0.28125l0.53125 0.171875q1.765625 0.671875 1.65625 2.171875q-0.0625 1.015625 -0.875 1.671875q-0.8125 0.65625 -2.109375 0.734375l-0.3125 0q-0.859375 -0.015625 -1.546875 -0.328125q-0.6875 -0.328125 -1.0625 -0.890625q-0.3593712 -0.578125 -0.3124962 -1.3125l0.9374962 0q0 0.796875 0.53125 1.265625q0.546875 0.453125 1.484375 0.46875q0.9375 0 1.59375 -0.421875q0.65625 -0.421875 0.75 -1.140625zm5.875 -8.421875l-0.375 2.171875l1.6875 0l-0.125 0.765625l-1.703125 0l-0.9375 5.640625l-0.015625 0.484375q0 0.84375 0.78125 0.875q0.25 0 0.765625 -0.0625l-0.046875 0.78125q-0.453125 0.125 -0.9375 0.109375q-0.8125 -0.015625 -1.1875 -0.578125q-0.375 -0.5625 -0.28125 -1.625l0.9375 -5.625l-1.515625 0l0.140625 -0.765625l1.5 0l0.375 -2.171875l0.9375 0zm6.953125 2.953125q-0.3125 -0.0625 -0.625 -0.0625q-0.890625 0 -1.640625 0.546875q-0.734375 0.53125 -0.984375 1.375l-1.0 5.8125l-0.921875 0l1.46875 -8.453125l0.921875 0l-0.28125 1.34375q0.453125 -0.75 1.109375 -1.140625q0.65625 -0.390625 1.4375 -0.375q0.265625 0 0.640625 0.109375l-0.125 0.84375zm1.171875 7.671875l-0.9375 0l1.46875 -8.453125l0.9375 0l-1.46875 8.453125zm0.796875 -10.90625q0.03125 -0.5 0.671875 -0.640625q0.296875 0.0625 0.421875 0.203125q0.140625 0.125 0.171875 0.4375q-0.078125 0.296875 -0.234375 0.4375q-0.140625 0.140625 -0.4375 0.203125q-0.625 -0.09375 -0.59375 -0.640625zm4.0703125 2.453125l-0.28125 1.4375q0.5625 -0.78125 1.296875 -1.1875q0.75 -0.421875 1.59375 -0.40625q1.21875 0.03125 1.765625 0.859375q0.5625 0.8125 0.390625 2.25l-0.921875 5.5l-0.921875 0l0.921875 -5.515625q0.046875 -0.453125 0.015625 -0.859375q-0.125 -1.390625 -1.515625 -1.4375q-0.8125 -0.015625 -1.53125 0.5q-0.703125 0.5 -1.25 1.515625l-1.0 5.796875l-0.921875 0l1.46875 -8.453125l0.890625 0zm10.4609375 -0.171875q0.75 0.03125 1.375 0.375q0.625 0.328125 0.984375 1.015625l0.296875 -1.21875l0.859375 0l-1.421875 8.296875q-0.140625 1.078125 -0.671875 1.890625q-0.515625 0.8125 -1.34375 1.234375q-0.8125 0.4375 -1.8125 0.40625q-0.796875 -0.015625 -1.515625 -0.390625q-0.734375 -0.390625 -1.1875 -1.09375l0.578125 -0.546875q0.8125 1.21875 2.109375 1.25q1.15625 0.03125 1.921875 -0.703125q0.78125 -0.734375 0.984375 -2.0l0.203125 -0.984375q-1.125 1.296875 -2.703125 1.25q-1.1875 -0.03125 -1.859375 -0.90625q-0.65625 -0.890625 -0.6875 -2.40625q-0.046875 -1.390625 0.46875 -2.75q0.515625 -1.375 1.40625 -2.0625q0.890625 -0.6875 2.015625 -0.65625zm-2.90625 4.53125l-0.046875 0.734375q-0.03125 1.28125 0.4375 1.984375q0.46875 0.6875 1.390625 0.71875q0.78125 0.03125 1.453125 -0.359375q0.6875 -0.40625 1.171875 -1.1875l0.671875 -3.9375q-0.21875 -0.765625 -0.734375 -1.203125q-0.515625 -0.4375 -1.328125 -0.46875q-1.203125 -0.03125 -1.984375 0.9375q-0.78125 0.953125 -1.03125 2.78125zm6.875 6.234375l-0.515625 -0.4375q0.90625 -1.03125 1.078125 -2.0625l0.1875 -1.109375l0.90625 0l-0.171875 1.125q-0.265625 1.46875 -1.484375 2.484375zm10.0859375 -14.296875l0.53125 0.421875q-0.8125 0.953125 -1.03125 1.90625l-0.1875 1.0625l-0.921875 0l0.140625 -0.84375q0.234375 -1.5 1.46875 -2.546875zm2.0 0l0.53125 0.421875q-0.8125 0.953125 -1.03125 1.90625l-0.1875 1.0625l-0.921875 0l0.140625 -0.84375q0.234375 -1.5 1.46875 -2.546875zm3.3125 1.53125l-0.375 2.171875l1.6875 0l-0.125 0.765625l-1.703125 0l-0.9375 5.640625l-0.015625 0.484375q0 0.84375 0.78125 0.875q0.25 0 0.765625 -0.0625l-0.046875 0.78125q-0.453125 0.125 -0.9375 0.109375q-0.8125 -0.015625 -1.1875 -0.578125q-0.375 -0.5625 -0.28125 -1.625l0.9375 -5.625l-1.515625 0l0.140625 -0.765625l1.5 0l0.375 -2.171875l0.9375 0zm3.875 3.59375q1.21875 -1.609375 2.875 -1.578125q1.21875 0.03125 1.765625 0.859375q0.5625 0.8125 0.390625 2.25l-0.921875 5.5l-0.921875 0l0.921875 -5.515625q0.046875 -0.453125 0.015625 -0.859375q-0.125 -1.390625 -1.515625 -1.4375q-0.8125 -0.015625 -1.53125 0.5q-0.703125 0.5 -1.25 1.515625l-1.0 5.796875l-0.921875 0l2.09375 -12.0l0.921875 0l-0.921875 4.96875zm7.5468826 7.03125l-0.9375 0l1.46875 -8.453125l0.9375 0l-1.46875 8.453125zm0.796875 -10.90625q0.03125 -0.5 0.671875 -0.640625q0.296875 0.0625 0.421875 0.203125q0.140625 0.125 0.171875 0.4375q-0.078125 0.296875 -0.234375 0.4375q-0.140625 0.140625 -0.4375 0.203125q-0.625 -0.09375 -0.59375 -0.640625zm7.0546875 8.703125q0.125 -1.078125 -1.3125 -1.5625l-1.34375 -0.40625q-1.84375 -0.625 -1.75 -2.078125q0.0625 -1.0625 0.96875 -1.71875q0.921875 -0.65625 2.1875 -0.640625q1.25 0.015625 2.015625 0.703125q0.78125 0.671875 0.71875 1.8125l-0.921875 0q0.046875 -0.75 -0.46875 -1.21875q-0.515625 -0.484375 -1.375 -0.5q-0.890625 0 -1.5 0.421875q-0.609375 0.40625 -0.6875 1.09375q-0.125 1.015625 1.234375 1.421875l0.96875 0.28125l0.53125 0.171875q1.765625 0.671875 1.65625 2.171875q-0.0625 1.015625 -0.875 1.671875q-0.8125 0.65625 -2.109375 0.734375l-0.3125 0q-0.859375 -0.015625 -1.546875 -0.328125q-0.6875 -0.328125 -1.0625 -0.890625q-0.359375 -0.578125 -0.3125 -1.3125l0.9375 0q0 0.796875 0.53125 1.265625q0.546875 0.453125 1.484375 0.46875q0.9375 0 1.59375 -0.421875q0.65625 -0.421875 0.75 -1.140625z" fill-rule="nonzero"/><path fill="#000000" d="m54.03236 251.29047l-0.9375 0l1.46875 -8.453125l0.9375 0l-1.46875 8.453125zm0.796875 -10.90625q0.03125 -0.5 0.671875 -0.640625q0.296875 0.0625 0.421875 0.203125q0.140625 0.125 0.171875 0.4375q-0.078125 0.296875 -0.234375 0.4375q-0.140625 0.140625 -0.4375 0.203125q-0.625 -0.09375 -0.59375 -0.640625zm7.0546875 8.703125q0.125 -1.078125 -1.3125 -1.5625l-1.34375 -0.40625q-1.84375 -0.625 -1.75 -2.078125q0.0625 -1.0625 0.96875 -1.71875q0.921875 -0.65625 2.1875 -0.640625q1.25 0.015625 2.015625 0.703125q0.78125 0.671875 0.71875 1.8125l-0.921875 0q0.046875 -0.75 -0.46875 -1.21875q-0.515625 -0.484375 -1.375 -0.5q-0.890625 0 -1.5 0.421875q-0.609375 0.40625 -0.6875 1.09375q-0.125 1.015625 1.234375 1.421875l0.96875 0.28125l0.53125 0.171875q1.765625 0.671875 1.65625 2.171875q-0.0625 1.015625 -0.875 1.671875q-0.8125 0.65625 -2.109375 0.734375l-0.3125 0q-0.859375 -0.015625 -1.546875 -0.328125q-0.6875 -0.328125 -1.0625 -0.890625q-0.359375 -0.578125 -0.3125 -1.3125l0.9375 0q0 0.796875 0.53125 1.265625q0.546875 0.453125 1.484375 0.46875q0.9375 0 1.59375 -0.421875q0.65625 -0.421875 0.75 -1.140625zm11.710934 2.203125q-0.046875 -0.296875 -0.03125 -0.59375l0.078125 -0.59375q-0.59375 0.640625 -1.34375 1.0q-0.75 0.359375 -1.625 0.34375q-1.078125 -0.015625 -1.75 -0.671875q-0.65625 -0.671875 -0.59375 -1.671875q0.0625 -0.828125 0.578125 -1.4375q0.515625 -0.625 1.453125 -0.953125q0.953125 -0.34375 2.125 -0.34375l1.71875 0l0.140625 -0.96875q0.09375 -0.859375 -0.375 -1.375q-0.46875 -0.53125 -1.375 -0.5625q-0.921875 -0.015625 -1.609375 0.453125q-0.6875 0.46875 -0.859375 1.25l-0.90625 0q0.15625 -1.109375 1.140625 -1.8125q0.984375 -0.703125 2.328125 -0.6875q1.296875 0.03125 2.0 0.796875q0.71875 0.75 0.578125 1.96875l-0.703125 4.25l-0.0625 0.671875q-0.015625 0.421875 0.0625 0.84375l-0.015625 0.09375l-0.953125 0zm-2.765625 -0.671875q0.859375 0.03125 1.640625 -0.40625q0.78125 -0.4375 1.296875 -1.25l0.328125 -1.875l-1.5 0q-1.421875 0 -2.328125 0.5q-0.890625 0.5 -0.984375 1.4375q-0.0625 0.6875 0.359375 1.140625q0.4375 0.4375 1.1875 0.453125zm9.9609375 0.671875l1.96875 -11.375l2.96875 0q1.3125 0 2.28125 0.6875q0.96875 0.671875 1.40625 1.859375q0.4375 1.1875 0.25 2.625l-0.140625 0.9375q-0.359375 2.375 -1.890625 3.828125q-1.53125 1.4375 -3.75 1.4375l-3.09375 0zm2.78125 -10.5625l-1.6875 9.75l2.03125 0q1.1875 0 2.171875 -0.546875q0.984375 -0.546875 1.625 -1.53125q0.65625 -1.0 0.84375 -2.25q0.203125 -1.265625 0.21875 -1.734375q0.015625 -0.484375 -0.046875 -0.921875q-0.1875 -1.25 -0.96875 -1.984375q-0.765625 -0.734375 -1.984375 -0.765625l-2.203125 -0.015625zm8.6171875 10.5625l-0.953125 0l1.96875 -11.375l0.953125 0l-1.96875 11.375zm3.0546875 0l1.96875 -11.375l2.96875 0q1.3125 0 2.28125 0.6875q0.96875 0.671875 1.40625 1.859375q0.4375 1.1875 0.25 2.625l-0.140625 0.9375q-0.359375 2.375 -1.890625 3.828125q-1.53125 1.4375 -3.75 1.4375l-3.09375 0zm2.78125 -10.5625l-1.6875 9.75l2.03125 0q1.1875 0 2.171875 -0.546875q0.984375 -0.546875 1.625 -1.53125q0.65625 -1.0 0.84375 -2.25q0.203125 -1.265625 0.21875 -1.734375q0.015625 -0.484375 -0.046875 -0.921875q-0.1875 -1.25 -0.96875 -1.984375q-0.765625 -0.734375 -1.984375 -0.765625l-2.203125 -0.015625zm8.6640625 1.984375l-0.5625 -0.4375q0.828125 -0.96875 1.03125 -1.9375l0.1875 -1.046875l0.921875 0l-0.140625 0.890625q-0.25 1.53125 -1.4375 2.53125zm2.0 0l-0.5625 -0.4375q0.828125 -0.96875 1.03125 -1.9375l0.1875 -1.046875l0.921875 0l-0.140625 0.890625q-0.25 1.53125 -1.4375 2.53125z" fill-rule="nonzero"/><path fill="#000000" fill-opacity="0.0" d="m141.88466 292.79828l242.42519 0l0 52.188965l-242.42519 0z" fill-rule="evenodd"/><path fill="#ff0000" d="m201.98007 303.87775l2.328125 10.015625l5.8125 -10.015625l1.28125 0l-1.96875 11.375l-0.953125 0l0.859375 -5.0l0.9375 -4.921875l-5.796875 9.921875l-0.734375 0l-2.359375 -10.0l-0.796875 5.046875l-0.859375 4.953125l-0.953125 0l1.96875 -11.375l1.234375 0zm13.4453125 11.53125q-1.015625 -0.015625 -1.765625 -0.5625q-0.734375 -0.5625 -1.09375 -1.5q-0.34375 -0.953125 -0.234375 -2.0625l0.015625 -0.265625q0.109375 -1.171875 0.6875 -2.21875q0.59375 -1.0625 1.484375 -1.625q0.90625 -0.5625 1.9375 -0.53125q0.9375 0.015625 1.59375 0.515625q0.65625 0.5 0.953125 1.390625q0.296875 0.890625 0.1875 1.96875l-0.0625 0.5625l-5.859375 0l-0.015625 0.1875q-0.125 0.859375 0.109375 1.640625q0.25 0.765625 0.796875 1.234375q0.5625 0.453125 1.328125 0.46875q0.75 0.015625 1.34375 -0.296875q0.609375 -0.3125 1.125 -0.828125l0.546875 0.4375q-0.578125 0.734375 -1.359375 1.125q-0.78125 0.375 -1.71875 0.359375zm0.984375 -7.96875q-1.015625 -0.046875 -1.828125 0.71875q-0.796875 0.75 -1.203125 2.125l4.90625 0.015625l0.015625 -0.125q0.140625 -1.109375 -0.390625 -1.90625q-0.53125 -0.796875 -1.5 -0.828125zm7.03125 -2.8125l-0.375 2.171875l1.6875 0l-0.125 0.765625l-1.703125 0l-0.9375 5.640625l-0.015625 0.484375q0 0.84375 0.78125 0.875q0.25 0 0.765625 -0.0625l-0.046875 0.78125q-0.453125 0.125 -0.9375 0.109375q-0.8125 -0.015625 -1.1875 -0.578125q-0.375 -0.5625 -0.28125 -1.625l0.9375 -5.625l-1.515625 0l0.140625 -0.765625l1.5 0l0.375 -2.171875l0.9375 0zm3.875 3.59375q1.21875 -1.609375 2.875 -1.578125q1.21875 0.03125 1.765625 0.859375q0.5625 0.8125 0.390625 2.25l-0.921875 5.5l-0.921875 0l0.921875 -5.515625q0.046875 -0.453125 0.015625 -0.859375q-0.125 -1.390625 -1.515625 -1.4375q-0.8125 -0.015625 -1.53125 0.5q-0.703125 0.5 -1.25 1.515625l-1.0 5.796875l-0.921875 0l2.09375 -12.0l0.921875 0l-0.921875 4.96875zm6.734375 2.71875q0.140625 -1.21875 0.75 -2.234375q0.609375 -1.03125 1.515625 -1.5625q0.90625 -0.53125 1.96875 -0.5q1.046875 0.015625 1.78125 0.578125q0.75 0.546875 1.078125 1.515625q0.34375 0.96875 0.234375 2.140625l-0.015625 0.140625q-0.234375 2.0 -1.421875 3.21875q-1.171875 1.21875 -2.828125 1.171875q-1.421875 -0.015625 -2.28125 -1.046875q-0.84375 -1.03125 -0.828125 -2.703125l0.015625 -0.453125l0.03125 -0.265625zm0.90625 0.265625q-0.109375 0.9375 0.125 1.71875q0.25 0.78125 0.765625 1.234375q0.53125 0.4375 1.3125 0.46875q0.84375 0.015625 1.53125 -0.421875q0.703125 -0.453125 1.15625 -1.265625q0.453125 -0.8125 0.59375 -1.796875l0.015625 -0.265625q0.140625 -1.5 -0.46875 -2.453125q-0.59375 -0.96875 -1.75 -0.984375q-1.25 -0.046875 -2.15625 0.96875q-0.90625 1.0 -1.109375 2.65625l-0.015625 0.140625zm8.0078125 -0.203125q0.1875 -1.328125 0.734375 -2.359375q0.546875 -1.03125 1.328125 -1.53125q0.796875 -0.5 1.78125 -0.46875q0.75 0.015625 1.359375 0.34375q0.625 0.328125 0.984375 1.0l0.859375 -4.734375l0.921875 0l-2.078125 12.0l-0.875 0l0.21875 -1.125q-1.109375 1.328125 -2.734375 1.28125q-1.1875 -0.03125 -1.859375 -0.921875q-0.65625 -0.890625 -0.6875 -2.390625q-0.015625 -0.484375 0.03125 -0.9375l0.015625 -0.15625zm0.9375 0.15625q-0.0625 0.515625 -0.046875 1.109375q0.03125 1.078125 0.5 1.6875q0.46875 0.609375 1.328125 0.640625q0.859375 0.03125 1.515625 -0.390625q0.65625 -0.421875 1.109375 -1.125l0.6875 -3.984375q-0.234375 -0.765625 -0.75 -1.1875q-0.515625 -0.4375 -1.328125 -0.46875q-1.1875 -0.03125 -1.984375 0.921875q-0.78125 0.9375 -1.015625 2.625l-0.015625 0.171875zm13.6015625 -4.359375l-0.28125 1.4375q0.5625 -0.78125 1.296875 -1.1875q0.75 -0.421875 1.59375 -0.40625q1.21875 0.03125 1.765625 0.859375q0.5625 0.8125 0.390625 2.25l-0.921875 5.5l-0.921875 0l0.921875 -5.515625q0.046875 -0.453125 0.015625 -0.859375q-0.125 -1.390625 -1.515625 -1.4375q-0.8125 -0.015625 -1.53125 0.5q-0.703125 0.5 -1.25 1.515625l-1.0 5.796875l-0.921875 0l1.46875 -8.453125l0.890625 0zm11.5078125 8.453125q-0.046875 -0.296875 -0.03125 -0.59375l0.078125 -0.59375q-0.59375 0.640625 -1.34375 1.0q-0.75 0.359375 -1.625 0.34375q-1.078125 -0.015625 -1.75 -0.671875q-0.65625 -0.671875 -0.59375 -1.671875q0.0625 -0.828125 0.578125 -1.4375q0.515625 -0.625 1.453125 -0.953125q0.953125 -0.34375 2.125 -0.34375l1.71875 0l0.140625 -0.96875q0.09375 -0.859375 -0.375 -1.375q-0.46875 -0.53125 -1.375 -0.5625q-0.921875 -0.015625 -1.609375 0.453125q-0.6875 0.46875 -0.859375 1.25l-0.90625 0q0.15625 -1.109375 1.140625 -1.8125q0.984375 -0.703125 2.328125 -0.6875q1.296875 0.03125 2.0 0.796875q0.71875 0.75 0.578125 1.96875l-0.703125 4.25l-0.0625 0.671875q-0.015625 0.421875 0.0625 0.84375l-0.015625 0.09375l-0.953125 0zm-2.765625 -0.671875q0.859375 0.03125 1.640625 -0.40625q0.78125 -0.4375 1.296875 -1.25l0.328125 -1.875l-1.5 0q-1.421875 0 -2.328125 0.5q-0.890625 0.5 -0.984375 1.4375q-0.0625 0.6875 0.359375 1.140625q0.4375 0.4375 1.1875 0.453125zm8.21875 -7.78125l-0.265625 1.375q1.140625 -1.5625 2.859375 -1.53125q0.890625 0.015625 1.484375 0.453125q0.59375 0.421875 0.734375 1.1875q0.578125 -0.796875 1.34375 -1.21875q0.765625 -0.4375 1.671875 -0.421875q1.203125 0.015625 1.78125 0.796875q0.59375 0.765625 0.484375 2.125l-0.015625 0.171875l-0.921875 5.515625l-0.9375 0l0.921875 -5.53125q0.046875 -0.453125 0.015625 -0.875q-0.15625 -1.375 -1.578125 -1.40625q-0.953125 -0.015625 -1.765625 0.625q-0.796875 0.640625 -1.0 1.59375l-0.96875 5.59375l-0.921875 0l0.9375 -5.59375q0.21875 -2.15625 -1.59375 -2.21875q-0.890625 -0.015625 -1.671875 0.5625q-0.765625 0.578125 -1.03125 1.4375l-1.0 5.8125l-0.9375 0l1.46875 -8.453125l0.90625 0zm14.8671875 8.609375q-1.015625 -0.015625 -1.765625 -0.5625q-0.734375 -0.5625 -1.09375 -1.5q-0.34375 -0.953125 -0.234375 -2.0625l0.015625 -0.265625q0.109375 -1.171875 0.6875 -2.21875q0.59375 -1.0625 1.484375 -1.625q0.90625 -0.5625 1.9375 -0.53125q0.9375 0.015625 1.59375 0.515625q0.65625 0.5 0.953125 1.390625q0.296875 0.890625 0.1875 1.96875l-0.0625 0.5625l-5.859375 0l-0.015625 0.1875q-0.125 0.859375 0.109375 1.640625q0.25 0.765625 0.796875 1.234375q0.5625 0.453125 1.328125 0.46875q0.75 0.015625 1.34375 -0.296875q0.609375 -0.3125 1.125 -0.828125l0.546875 0.4375q-0.578125 0.734375 -1.359375 1.125q-0.78125 0.375 -1.71875 0.359375zm0.984375 -7.96875q-1.015625 -0.046875 -1.828125 0.71875q-0.796875 0.75 -1.203125 2.125l4.90625 0.015625l0.015625 -0.125q0.140625 -1.109375 -0.390625 -1.90625q-0.53125 -0.796875 -1.5 -0.828125zm3.25 9.953125l-0.515625 -0.4375q0.90625 -1.03125 1.078125 -2.0625l0.1875 -1.109375l0.90625 0l-0.171875 1.125q-0.265625 1.46875 -1.484375 2.484375zm10.7578125 -1.984375q-1.015625 -0.015625 -1.765625 -0.5625q-0.734375 -0.5625 -1.09375 -1.5q-0.34375 -0.953125 -0.234375 -2.0625l0.015625 -0.265625q0.109375 -1.171875 0.6875 -2.21875q0.59375 -1.0625 1.484375 -1.625q0.90625 -0.5625 1.9375 -0.53125q0.9375 0.015625 1.59375 0.515625q0.65625 0.5 0.953125 1.390625q0.296875 0.890625 0.1875 1.96875l-0.0625 0.5625l-5.859375 0l-0.015625 0.1875q-0.125 0.859375 0.109375 1.640625q0.25 0.765625 0.796875 1.234375q0.5625 0.453125 1.328125 0.46875q0.75 0.015625 1.34375 -0.296875q0.609375 -0.3125 1.125 -0.828125l0.546875 0.4375q-0.578125 0.734375 -1.359375 1.125q-0.78125 0.375 -1.71875 0.359375zm0.984375 -7.96875q-1.015625 -0.046875 -1.828125 0.71875q-0.796875 0.75 -1.203125 2.125l4.90625 0.015625l0.015625 -0.125q0.140625 -1.109375 -0.390625 -1.90625q-0.53125 -0.796875 -1.5 -0.828125zm3.765625 7.25q0.03125 -0.28125 0.21875 -0.46875q0.203125 -0.1875 0.484375 -0.203125q0.28125 0 0.453125 0.203125q0.1875 0.1875 0.15625 0.46875q-0.015625 0.265625 -0.21875 0.453125q-0.1875 0.171875 -0.46875 0.171875q-0.265625 0.015625 -0.453125 -0.15625q-0.1875 -0.1875 -0.171875 -0.46875zm7.984375 -8.0625q0.75 0.03125 1.375 0.375q0.625 0.328125 0.984375 1.015625l0.296875 -1.21875l0.859375 0l-1.421875 8.296875q-0.140625 1.078125 -0.671875 1.890625q-0.515625 0.8125 -1.34375 1.234375q-0.8125 0.4375 -1.8125 0.40625q-0.796875 -0.015625 -1.515625 -0.390625q-0.734375 -0.390625 -1.1875 -1.09375l0.578125 -0.546875q0.8125 1.21875 2.109375 1.25q1.15625 0.03125 1.921875 -0.703125q0.78125 -0.734375 0.984375 -2.0l0.203125 -0.984375q-1.125 1.296875 -2.703125 1.25q-1.1875 -0.03125 -1.859375 -0.90625q-0.65625 -0.890625 -0.6875 -2.40625q-0.046875 -1.390625 0.46875 -2.75q0.515625 -1.375 1.40625 -2.0625q0.890625 -0.6875 2.015625 -0.65625zm-2.90625 4.53125l-0.046875 0.734375q-0.03125 1.28125 0.4375 1.984375q0.46875 0.6875 1.390625 0.71875q0.78125 0.03125 1.453125 -0.359375q0.6875 -0.40625 1.171875 -1.1875l0.671875 -3.9375q-0.21875 -0.765625 -0.734375 -1.203125q-0.515625 -0.4375 -1.328125 -0.46875q-1.203125 -0.03125 -1.984375 0.9375q-0.78125 0.953125 -1.03125 2.78125zm7.390625 3.53125q0.03125 -0.28125 0.21875 -0.46875q0.203125 -0.1875 0.484375 -0.203125q0.28125 0 0.453125 0.203125q0.1875 0.1875 0.15625 0.46875q-0.015625 0.265625 -0.21875 0.453125q-0.1875 0.171875 -0.46875 0.171875q-0.265625 0.015625 -0.453125 -0.15625q-0.1875 -0.1875 -0.171875 -0.46875zm3.265625 2.703125l-0.515625 -0.4375q0.90625 -1.03125 1.078125 -2.0625l0.1875 -1.109375l0.90625 0l-0.171875 1.125q-0.265625 1.46875 -1.484375 2.484375z" fill-rule="nonzero"/><path fill="#ff0000" d="m208.06992 322.0965l0.53125 0.421875q-0.8125 0.953125 -1.03125 1.90625l-0.1875 1.0625l-0.921875 0l0.140625 -0.84375q0.234375 -1.5 1.46875 -2.546875zm2.0 0l0.53125 0.421875q-0.8125 0.953125 -1.03125 1.90625l-0.1875 1.0625l-0.921875 0l0.140625 -0.84375q0.234375 -1.5 1.46875 -2.546875zm4.75 9.953125q0.125 -1.078125 -1.3125 -1.5625l-1.34375 -0.40625q-1.84375 -0.625 -1.75 -2.078125q0.0625 -1.0625 0.96875 -1.71875q0.921875 -0.65625 2.1875 -0.640625q1.25 0.015625 2.015625 0.703125q0.78125 0.671875 0.71875 1.8125l-0.921875 0q0.046875 -0.75 -0.46875 -1.21875q-0.515625 -0.484375 -1.375 -0.5q-0.890625 0 -1.5 0.421875q-0.609375 0.40625 -0.6875 1.09375q-0.125 1.015625 1.234375 1.421875l0.96875 0.28125l0.53125 0.171875q1.765625 0.671875 1.65625 2.171875q-0.0625 1.015625 -0.875 1.671875q-0.8125 0.65625 -2.109375 0.734375l-0.3125 0q-0.859375 -0.015625 -1.546875 -0.328125q-0.6875 -0.328125 -1.0625 -0.890625q-0.359375 -0.578125 -0.3125 -1.3125l0.9375 0q0 0.796875 0.53125 1.265625q0.546875 0.453125 1.484375 0.46875q0.9375 0 1.59375 -0.421875q0.65625 -0.421875 0.75 -1.140625zm2.828125 -2.109375q0.140625 -1.21875 0.75 -2.234375q0.609375 -1.03125 1.515625 -1.5625q0.90625 -0.53125 1.96875 -0.5q1.046875 0.015625 1.78125 0.578125q0.75 0.546875 1.078125 1.515625q0.34375 0.96875 0.234375 2.140625l-0.015625 0.140625q-0.234375 2.0 -1.421875 3.21875q-1.171875 1.21875 -2.828125 1.171875q-1.421875 -0.015625 -2.28125 -1.046875q-0.84375 -1.03125 -0.828125 -2.703125l0.015625 -0.453125l0.03125 -0.265625zm0.90625 0.265625q-0.109375 0.9375 0.125 1.71875q0.25 0.78125 0.765625 1.234375q0.53125 0.4375 1.3125 0.46875q0.84375 0.015625 1.53125 -0.421875q0.703125 -0.453125 1.15625 -1.265625q0.453125 -0.8125 0.59375 -1.796875l0.015625 -0.265625q0.140625 -1.5 -0.46875 -2.453125q-0.59375 -0.96875 -1.75 -0.984375q-1.25 -0.046875 -2.15625 0.96875q-0.90625 1.0 -1.109375 2.65625l-0.015625 0.140625zm10.34375 2.71875l3.609375 -7.125l0.984375 0l-4.375 8.453125l-0.765625 0l-1.75 -8.453125l0.921875 0l1.375 7.125zm6.25 -7.25l-0.5625 -0.4375q0.828125 -0.96875 1.03125 -1.9375l0.1875 -1.046875l0.921875 0l-0.140625 0.890625q-0.25 1.53125 -1.4375 2.53125zm2.0 0l-0.5625 -0.4375q0.828125 -0.96875 1.03125 -1.9375l0.1875 -1.046875l0.921875 0l-0.140625 0.890625q-0.25 1.53125 -1.4375 2.53125zm0.828125 10.71875l-0.515625 -0.4375q0.90625 -1.03125 1.078125 -2.0625l0.1875 -1.109375l0.90625 0l-0.171875 1.125q-0.265625 1.46875 -1.484375 2.484375zm10.0859375 -14.296875l0.53125 0.421875q-0.8125 0.953125 -1.03125 1.90625l-0.1875 1.0625l-0.921875 0l0.140625 -0.84375q0.234375 -1.5 1.46875 -2.546875zm2.0 0l0.53125 0.421875q-0.8125 0.953125 -1.03125 1.90625l-0.1875 1.0625l-0.921875 0l0.140625 -0.84375q0.234375 -1.5 1.46875 -2.546875zm7.375 7.96875q-0.265625 2.015625 -1.28125 3.203125q-1.015625 1.1875 -2.5 1.15625q-0.828125 -0.015625 -1.46875 -0.375q-0.625 -0.359375 -0.953125 -0.953125l-0.265625 1.15625l-0.875 0l2.078125 -12.0l0.921875 0l-0.875 4.765625q1.078125 -1.421875 2.734375 -1.375q1.21875 0.03125 1.875 0.90625q0.65625 0.859375 0.671875 2.390625q0.015625 0.5 -0.046875 0.953125l-0.015625 0.171875zm-0.90625 -0.1875l0.046875 -0.734375q0.03125 -1.28125 -0.4375 -1.96875q-0.46875 -0.703125 -1.40625 -0.734375q-1.703125 -0.03125 -2.671875 1.734375l-0.640625 3.828125q0.21875 0.765625 0.765625 1.171875q0.5625 0.40625 1.34375 0.4375q1.171875 0.015625 1.953125 -0.90625q0.78125 -0.921875 1.046875 -2.828125zm5.5234375 -6.25l-0.375 2.171875l1.6875 0l-0.125 0.765625l-1.703125 0l-0.9375 5.640625l-0.015625 0.484375q0 0.84375 0.78125 0.875q0.25 0 0.765625 -0.0625l-0.046875 0.78125q-0.453125 0.125 -0.9375 0.109375q-0.8125 -0.015625 -1.1875 -0.578125q-0.375 -0.5625 -0.28125 -1.625l0.9375 -5.625l-1.515625 0l0.140625 -0.765625l1.5 0l0.375 -2.171875l0.9375 0zm5.0625 10.0q0.921875 0.03125 1.625 -0.515625q0.703125 -0.546875 0.9375 -1.46875l0.890625 0q-0.234375 1.265625 -1.234375 2.046875q-1.0 0.765625 -2.265625 0.734375q-1.03125 -0.03125 -1.734375 -0.5625q-0.6875 -0.546875 -1.0 -1.5q-0.296875 -0.953125 -0.1875 -2.15625l0.03125 -0.328125q0.09375 -0.828125 0.390625 -1.59375q0.3125 -0.78125 0.828125 -1.375q0.515625 -0.59375 1.234375 -0.9375q0.71875 -0.359375 1.609375 -0.328125q1.296875 0.03125 2.0625 0.875q0.765625 0.84375 0.71875 2.140625l-0.875 -0.015625q0.015625 -0.96875 -0.515625 -1.5625q-0.515625 -0.609375 -1.421875 -0.640625q-0.96875 -0.03125 -1.71875 0.5625q-0.734375 0.59375 -1.109375 1.6875q-0.375 1.078125 -0.359375 2.296875q0.03125 1.25 0.5625 1.9375q0.546875 0.671875 1.53125 0.703125zm9.9609375 -7.046875q-0.3125 -0.0625 -0.625 -0.0625q-0.890625 0 -1.640625 0.546875q-0.734375 0.53125 -0.984375 1.375l-1.0 5.8125l-0.921875 0l1.46875 -8.453125l0.921875 0l-0.28125 1.34375q0.453125 -0.75 1.109375 -1.140625q0.65625 -0.390625 1.4375 -0.375q0.265625 0 0.640625 0.109375l-0.125 0.84375zm1.671875 -0.90625l-0.5625 -0.4375q0.828125 -0.96875 1.03125 -1.9375l0.1875 -1.046875l0.921875 0l-0.140625 0.890625q-0.25 1.53125 -1.4375 2.53125zm2.0 0l-0.5625 -0.4375q0.828125 -0.96875 1.03125 -1.9375l0.1875 -1.046875l0.921875 0l-0.140625 0.890625q-0.25 1.53125 -1.4375 2.53125zm0.828125 10.71875l-0.515625 -0.4375q0.90625 -1.03125 1.078125 -2.0625l0.1875 -1.109375l0.90625 0l-0.171875 1.125q-0.265625 1.46875 -1.484375 2.484375zm10.0859375 -14.296875l0.53125 0.421875q-0.8125 0.953125 -1.03125 1.90625l-0.1875 1.0625l-0.921875 0l0.140625 -0.84375q0.234375 -1.5 1.46875 -2.546875zm2.0 0l0.53125 0.421875q-0.8125 0.953125 -1.03125 1.90625l-0.1875 1.0625l-0.921875 0l0.140625 -0.84375q0.234375 -1.5 1.46875 -2.546875zm2.765625 7.90625l-1.25 1.0625l-0.546875 3.1875l-0.9375 0l2.09375 -12.0l0.921875 0l-1.328125 7.609375l0.96875 -0.890625l3.6875 -3.171875l1.234375 0l-4.15625 3.59375l2.921875 4.859375l-1.03125 0l-2.578125 -4.25zm8.1484375 4.40625q-1.015625 -0.015625 -1.765625 -0.5625q-0.734375 -0.5625 -1.09375 -1.5q-0.34375 -0.953125 -0.234375 -2.0625l0.015625 -0.265625q0.109375 -1.171875 0.6875 -2.21875q0.59375 -1.0625 1.484375 -1.625q0.90625 -0.5625 1.9375 -0.53125q0.9375 0.015625 1.59375 0.515625q0.65625 0.5 0.953125 1.390625q0.296875 0.890625 0.1875 1.96875l-0.0625 0.5625l-5.859375 0l-0.015625 0.1875q-0.125 0.859375 0.109375 1.640625q0.25 0.765625 0.796875 1.234375q0.5625 0.453125 1.328125 0.46875q0.75 0.015625 1.34375 -0.296875q0.609375 -0.3125 1.125 -0.828125l0.546875 0.4375q-0.578125 0.734375 -1.359375 1.125q-0.78125 0.375 -1.71875 0.359375zm0.984375 -7.96875q-1.015625 -0.046875 -1.828125 0.71875q-0.796875 0.75 -1.203125 2.125l4.90625 0.015625l0.015625 -0.125q0.140625 -1.109375 -0.390625 -1.90625q-0.53125 -0.796875 -1.5 -0.828125zm6.4765625 6.4375l3.625 -7.078125l1.03125 0l-5.15625 9.8125q-0.5625 1.140625 -1.203125 1.609375q-0.640625 0.484375 -1.421875 0.46875q-0.296875 -0.015625 -0.75 -0.125l0.09375 -0.765625l0.46875 0.0625q1.3125 0.046875 2.078125 -1.546875l0.59375 -1.1875l-1.640625 -8.328125l0.984375 0l1.296875 7.078125zm6.1640625 -7.203125l-0.5625 -0.4375q0.828125 -0.96875 1.03125 -1.9375l0.1875 -1.046875l0.921875 0l-0.140625 0.890625q-0.25 1.53125 -1.4375 2.53125zm2.0 0l-0.5625 -0.4375q0.828125 -0.96875 1.03125 -1.9375l0.1875 -1.046875l0.921875 0l-0.140625 0.890625q-0.25 1.53125 -1.4375 2.53125z" fill-rule="nonzero"/><path fill="#000000" fill-opacity="0.0" d="m522.6809 289.40994l380.7874 0l0 59.02362l-380.7874 0z" fill-rule="evenodd"/><path fill="#000000" d="m588.4418 303.12552l0.53125 0.421875q-0.8125 0.953125 -1.03125 1.90625l-0.1875 1.0625l-0.921875 0l0.140625 -0.84375q0.234375 -1.5 1.46875 -2.546875zm2.0 0l0.53125 0.421875q-0.8125 0.953125 -1.03125 1.90625l-0.1875 1.0625l-0.921875 0l0.140625 -0.84375q0.234375 -1.5 1.46875 -2.546875z" fill-rule="nonzero"/><path fill="#9900ff" d="m592.4418 310.64114l-0.796875 4.640625l-0.953125 0l1.96875 -11.375l3.703125 0q1.59375 0.046875 2.453125 0.953125q0.875 0.890625 0.75 2.390625q-0.15625 1.59375 -1.296875 2.5q-1.125 0.90625 -2.953125 0.90625l-2.875 -0.015625zm0.140625 -0.8125l2.78125 0.015625q1.34375 0 2.21875 -0.6875q0.875 -0.6875 1.03125 -1.90625q0.125 -1.15625 -0.5 -1.8125q-0.625 -0.671875 -1.765625 -0.703125l-2.875 -0.015625l-0.890625 5.109375zm12.703125 5.453125q-0.046875 -0.296875 -0.03125 -0.59375l0.078125 -0.59375q-0.59375 0.640625 -1.34375 1.0q-0.75 0.359375 -1.625 0.34375q-1.078125 -0.015625 -1.75 -0.671875q-0.65625 -0.671875 -0.59375 -1.671875q0.0625 -0.828125 0.578125 -1.4375q0.515625 -0.625 1.453125 -0.953125q0.953125 -0.34375 2.125 -0.34375l1.71875 0l0.140625 -0.96875q0.09375 -0.859375 -0.375 -1.375q-0.46875 -0.53125 -1.375 -0.5625q-0.921875 -0.015625 -1.609375 0.453125q-0.6875 0.46875 -0.859375 1.25l-0.90625 0q0.15625 -1.109375 1.140625 -1.8125q0.984375 -0.703125 2.328125 -0.6875q1.296875 0.03125 2.0 0.796875q0.71875 0.75 0.578125 1.96875l-0.703125 4.25l-0.0625 0.671875q-0.015625 0.421875 0.0625 0.84375l-0.015625 0.09375l-0.953125 0zm-2.765625 -0.671875q0.859375 0.03125 1.640625 -0.40625q0.78125 -0.4375 1.296875 -1.25l0.328125 -1.875l-1.5 0q-1.421875 0 -2.328125 0.5q-0.890625 0.5 -0.984375 1.4375q-0.0625 0.6875 0.359375 1.140625q0.4375 0.4375 1.1875 0.453125zm9.171875 -9.953125l-0.375 2.171875l1.6875 0l-0.125 0.765625l-1.703125 0l-0.9375 5.640625l-0.015625 0.484375q0 0.84375 0.78125 0.875q0.25 0 0.765625 -0.0625l-0.046875 0.78125q-0.453125 0.125 -0.9375 0.109375q-0.8125 -0.015625 -1.1875 -0.578125q-0.375 -0.5625 -0.28125 -1.625l0.9375 -5.625l-1.515625 0l0.140625 -0.765625l1.5 0l0.375 -2.171875l0.9375 0zm3.875 3.59375q1.21875 -1.609375 2.875 -1.578125q1.21875 0.03125 1.765625 0.859375q0.5625 0.8125 0.390625 2.25l-0.921875 5.5l-0.921875 0l0.921875 -5.515625q0.046875 -0.453125 0.015625 -0.859375q-0.125 -1.390625 -1.515625 -1.4375q-0.8125 -0.015625 -1.53125 0.5q-0.703125 0.5 -1.25 1.515625l-1.0 5.796875l-0.921875 0l2.09375 -12.0l0.921875 0l-0.921875 4.96875zm7.109375 -1.546875l-0.5625 -0.4375q0.828125 -0.96875 1.03125 -1.9375l0.1875 -1.046875l0.921875 0l-0.140625 0.890625q-0.25 1.53125 -1.4375 2.53125zm2.0 0l-0.5625 -0.4375q0.828125 -0.96875 1.03125 -1.9375l0.1875 -1.046875l0.921875 0l-0.140625 0.890625q-0.25 1.53125 -1.4375 2.53125zm10.4453125 8.578125q-0.046875 -0.296875 -0.03125 -0.59375l0.078125 -0.59375q-0.59375 0.640625 -1.34375 1.0q-0.75 0.359375 -1.625 0.34375q-1.078125 -0.015625 -1.75 -0.671875q-0.65625 -0.671875 -0.59375 -1.671875q0.0625 -0.828125 0.578125 -1.4375q0.515625 -0.625 1.453125 -0.953125q0.953125 -0.34375 2.125 -0.34375l1.71875 0l0.140625 -0.96875q0.09375 -0.859375 -0.375 -1.375q-0.46875 -0.53125 -1.375 -0.5625q-0.921875 -0.015625 -1.609375 0.453125q-0.6875 0.46875 -0.859375 1.25l-0.90625 0q0.15625 -1.109375 1.140625 -1.8125q0.984375 -0.703125 2.328125 -0.6875q1.296875 0.03125 2.0 0.796875q0.71875 0.75 0.578125 1.96875l-0.703125 4.25l-0.0625 0.671875q-0.015625 0.421875 0.0625 0.84375l-0.015625 0.09375l-0.953125 0zm-2.765625 -0.671875q0.859375 0.03125 1.640625 -0.40625q0.78125 -0.4375 1.296875 -1.25l0.328125 -1.875l-1.5 0q-1.421875 0 -2.328125 0.5q-0.890625 0.5 -0.984375 1.4375q-0.0625 0.6875 0.359375 1.140625q0.4375 0.4375 1.1875 0.453125zm8.25 -7.78125l-0.28125 1.4375q0.5625 -0.78125 1.296875 -1.1875q0.75 -0.421875 1.59375 -0.40625q1.21875 0.03125 1.765625 0.859375q0.5625 0.8125 0.390625 2.25l-0.921875 5.5l-0.921875 0l0.921875 -5.515625q0.046875 -0.453125 0.015625 -0.859375q-0.125 -1.390625 -1.515625 -1.4375q-0.8125 -0.015625 -1.53125 0.5q-0.703125 0.5 -1.25 1.515625l-1.0 5.796875l-0.921875 0l1.46875 -8.453125l0.890625 0zm6.6171875 4.203125q0.1875 -1.328125 0.734375 -2.359375q0.546875 -1.03125 1.328125 -1.53125q0.796875 -0.5 1.78125 -0.46875q0.75 0.015625 1.359375 0.34375q0.625 0.328125 0.984375 1.0l0.859375 -4.734375l0.921875 0l-2.078125 12.0l-0.875 0l0.21875 -1.125q-1.109375 1.328125 -2.734375 1.28125q-1.1875 -0.03125 -1.859375 -0.921875q-0.65625 -0.890625 -0.6875 -2.390625q-0.015625 -0.484375 0.03125 -0.9375l0.015625 -0.15625zm0.9375 0.15625q-0.0625 0.515625 -0.046875 1.109375q0.03125 1.078125 0.5 1.6875q0.46875 0.609375 1.328125 0.640625q0.859375 0.03125 1.515625 -0.390625q0.65625 -0.421875 1.109375 -1.125l0.6875 -3.984375q-0.234375 -0.765625 -0.75 -1.1875q-0.515625 -0.4375 -1.328125 -0.46875q-1.1875 -0.03125 -1.984375 0.921875q-0.78125 0.9375 -1.015625 2.625l-0.015625 0.171875zm13.9296875 -8.0625l0.53125 0.421875q-0.8125 0.953125 -1.03125 1.90625l-0.1875 1.0625l-0.921875 0l0.140625 -0.84375q0.234375 -1.5 1.46875 -2.546875zm2.0 0l0.53125 0.421875q-0.8125 0.953125 -1.03125 1.90625l-0.1875 1.0625l-0.921875 0l0.140625 -0.84375q0.234375 -1.5 1.46875 -2.546875zm0.6875 12.15625l1.328125 -7.6875l-1.359375 0l0.140625 -0.765625l1.359375 0l0.15625 -1.15625q0.203125 -1.234375 0.953125 -1.90625q0.75 -0.6875 1.875 -0.671875q0.453125 0.015625 1.03125 0.15625l-0.171875 0.765625q-0.4375 -0.109375 -0.828125 -0.109375q-0.78125 0 -1.296875 0.515625q-0.515625 0.5 -0.640625 1.40625l-0.15625 1.0l1.96875 0l-0.140625 0.765625l-1.953125 0l-1.328125 7.6875l-0.9375 0zm9.734375 -7.671875q-0.3125 -0.0625 -0.625 -0.0625q-0.890625 0 -1.640625 0.546875q-0.734375 0.53125 -0.984375 1.375l-1.0 5.8125l-0.921875 0l1.46875 -8.453125l0.921875 0l-0.28125 1.34375q0.453125 -0.75 1.109375 -1.140625q0.65625 -0.390625 1.4375 -0.375q0.265625 0 0.640625 0.109375l-0.125 0.84375zm5.078125 7.671875q-0.046875 -0.296875 -0.03125 -0.59375l0.078125 -0.59375q-0.59375 0.640625 -1.34375 1.0q-0.75 0.359375 -1.625 0.34375q-1.078125 -0.015625 -1.75 -0.671875q-0.65625 -0.671875 -0.59375 -1.671875q0.0625 -0.828125 0.578125 -1.4375q0.515625 -0.625 1.453125 -0.953125q0.953125 -0.34375 2.125 -0.34375l1.71875 0l0.140625 -0.96875q0.09375 -0.859375 -0.375 -1.375q-0.46875 -0.53125 -1.375 -0.5625q-0.921875 -0.015625 -1.609375 0.453125q-0.6875 0.46875 -0.859375 1.25l-0.90625 0q0.15625 -1.109375 1.140625 -1.8125q0.984375 -0.703125 2.328125 -0.6875q1.296875 0.03125 2.0 0.796875q0.71875 0.75 0.578125 1.96875l-0.703125 4.25l-0.0625 0.671875q-0.015625 0.421875 0.0625 0.84375l-0.015625 0.09375l-0.953125 0zm-2.765625 -0.671875q0.859375 0.03125 1.640625 -0.40625q0.78125 -0.4375 1.296875 -1.25l0.328125 -1.875l-1.5 0q-1.421875 0 -2.328125 0.5q-0.890625 0.5 -0.984375 1.4375q-0.0625 0.6875 0.359375 1.140625q0.4375 0.4375 1.1875 0.453125zm10.109375 -7.953125q0.75 0.03125 1.375 0.375q0.625 0.328125 0.984375 1.015625l0.296875 -1.21875l0.859375 0l-1.421875 8.296875q-0.140625 1.078125 -0.671875 1.890625q-0.515625 0.8125 -1.34375 1.234375q-0.8125 0.4375 -1.8125 0.40625q-0.796875 -0.015625 -1.515625 -0.390625q-0.734375 -0.390625 -1.1875 -1.09375l0.578125 -0.546875q0.8125 1.21875 2.109375 1.25q1.15625 0.03125 1.921875 -0.703125q0.78125 -0.734375 0.984375 -2.0l0.203125 -0.984375q-1.125 1.296875 -2.703125 1.25q-1.1875 -0.03125 -1.859375 -0.90625q-0.65625 -0.890625 -0.6875 -2.40625q-0.046875 -1.390625 0.46875 -2.75q0.515625 -1.375 1.40625 -2.0625q0.890625 -0.6875 2.015625 -0.65625zm-2.90625 4.53125l-0.046875 0.734375q-0.03125 1.28125 0.4375 1.984375q0.46875 0.6875 1.390625 0.71875q0.78125 0.03125 1.453125 -0.359375q0.6875 -0.40625 1.171875 -1.1875l0.671875 -3.9375q-0.21875 -0.765625 -0.734375 -1.203125q-0.515625 -0.4375 -1.328125 -0.46875q-1.203125 -0.03125 -1.984375 0.9375q-0.78125 0.953125 -1.03125 2.78125zm9.703125 -4.359375l-0.265625 1.375q1.140625 -1.5625 2.859375 -1.53125q0.890625 0.015625 1.484375 0.453125q0.59375 0.421875 0.734375 1.1875q0.578125 -0.796875 1.34375 -1.21875q0.765625 -0.4375 1.671875 -0.421875q1.203125 0.015625 1.78125 0.796875q0.59375 0.765625 0.484375 2.125l-0.015625 0.171875l-0.921875 5.515625l-0.9375 0l0.921875 -5.53125q0.046875 -0.453125 0.015625 -0.875q-0.15625 -1.375 -1.578125 -1.40625q-0.953125 -0.015625 -1.765625 0.625q-0.796875 0.640625 -1.0 1.59375l-0.96875 5.59375l-0.921875 0l0.9375 -5.59375q0.21875 -2.15625 -1.59375 -2.21875q-0.890625 -0.015625 -1.671875 0.5625q-0.765625 0.578125 -1.03125 1.4375l-1.0 5.8125l-0.9375 0l1.46875 -8.453125l0.90625 0zm14.8671875 8.609375q-1.015625 -0.015625 -1.765625 -0.5625q-0.734375 -0.5625 -1.09375 -1.5q-0.34375 -0.953125 -0.234375 -2.0625l0.015625 -0.265625q0.109375 -1.171875 0.6875 -2.21875q0.59375 -1.0625 1.484375 -1.625q0.90625 -0.5625 1.9375 -0.53125q0.9375 0.015625 1.59375 0.515625q0.65625 0.5 0.953125 1.390625q0.296875 0.890625 0.1875 1.96875l-0.0625 0.5625l-5.859375 0l-0.015625 0.1875q-0.125 0.859375 0.109375 1.640625q0.25 0.765625 0.796875 1.234375q0.5625 0.453125 1.328125 0.46875q0.75 0.015625 1.34375 -0.296875q0.609375 -0.3125 1.125 -0.828125l0.546875 0.4375q-0.578125 0.734375 -1.359375 1.125q-0.78125 0.375 -1.71875 0.359375zm0.984375 -7.96875q-1.015625 -0.046875 -1.828125 0.71875q-0.796875 0.75 -1.203125 2.125l4.90625 0.015625l0.015625 -0.125q0.140625 -1.109375 -0.390625 -1.90625q-0.53125 -0.796875 -1.5 -0.828125zm6.109375 -0.640625l-0.28125 1.4375q0.5625 -0.78125 1.296875 -1.1875q0.75 -0.421875 1.59375 -0.40625q1.21875 0.03125 1.765625 0.859375q0.5625 0.8125 0.390625 2.25l-0.921875 5.5l-0.921875 0l0.921875 -5.515625q0.046875 -0.453125 0.015625 -0.859375q-0.125 -1.390625 -1.515625 -1.4375q-0.8125 -0.015625 -1.53125 0.5q-0.703125 0.5 -1.25 1.515625l-1.0 5.796875l-0.921875 0l1.46875 -8.453125l0.890625 0zm9.5234375 -2.171875l-0.375 2.171875l1.6875 0l-0.125 0.765625l-1.703125 0l-0.9375 5.640625l-0.015625 0.484375q0 0.84375 0.78125 0.875q0.25 0 0.765625 -0.0625l-0.046875 0.78125q-0.453125 0.125 -0.9375 0.109375q-0.8125 -0.015625 -1.1875 -0.578125q-0.375 -0.5625 -0.28125 -1.625l0.9375 -5.625l-1.515625 0l0.140625 -0.765625l1.5 0l0.375 -2.171875l0.9375 0zm3.203125 2.046875l-0.5625 -0.4375q0.828125 -0.96875 1.03125 -1.9375l0.1875 -1.046875l0.921875 0l-0.140625 0.890625q-0.25 1.53125 -1.4375 2.53125zm2.0 0l-0.5625 -0.4375q0.828125 -0.96875 1.03125 -1.9375l0.1875 -1.046875l0.921875 0l-0.140625 0.890625q-0.25 1.53125 -1.4375 2.53125zm10.5703125 -4.1875l0.171875 0.640625q-1.25 0.859375 -2.171875 2.40625q-0.921875 1.53125 -1.453125 3.6875q-0.515625 2.140625 -0.46875 4.15625l0.015625 0.515625q0.171875 3.125 1.703125 4.421875l-0.265625 0.609375q-1.5625 -1.171875 -2.09375 -3.640625q-0.328125 -1.515625 -0.25 -3.09375q0.09375 -2.046875 0.75 -4.09375q0.671875 -2.046875 1.703125 -3.46875q1.046875 -1.4375 2.359375 -2.140625zm2.1015625 4.3125l-1.609375 9.46875q-0.15625 1.171875 -0.828125 1.8125q-0.65625 0.640625 -1.703125 0.609375q-0.328125 0 -0.84375 -0.15625l0.109375 -0.78125q0.421875 0.125 0.6875 0.125q1.375 0.03125 1.65625 -1.65625l1.609375 -9.421875l0.921875 0zm-0.65625 -2.453125q0.015625 -0.25 0.203125 -0.4375q0.1875 -0.1875 0.453125 -0.1875q0.28125 -0.015625 0.453125 0.171875q0.171875 0.1875 0.15625 0.453125q-0.03125 0.265625 -0.21875 0.453125q-0.1875 0.171875 -0.453125 0.1875q-0.28125 0 -0.453125 -0.171875q-0.15625 -0.1875 -0.140625 -0.46875zm7.4140625 9.84375q-1.0 1.265625 -2.78125 1.21875q-1.1875 -0.015625 -1.78125 -0.859375q-0.578125 -0.84375 -0.421875 -2.34375l0.90625 -5.40625l0.921875 0l-0.890625 5.4375q-0.046875 0.421875 -0.015625 0.828125q0.0625 0.71875 0.4375 1.109375q0.375 0.390625 1.03125 0.421875q0.9375 0.03125 1.734375 -0.4375q0.796875 -0.46875 1.03125 -1.234375l1.046875 -6.125l0.9375 0l-1.46875 8.453125l-0.90625 0l0.21875 -1.0625zm8.3359375 -1.140625q0.125 -1.078125 -1.3125 -1.5625l-1.34375 -0.40625q-1.84375 -0.625 -1.75 -2.078125q0.0625 -1.0625 0.96875 -1.71875q0.921875 -0.65625 2.1875 -0.640625q1.25 0.015625 2.015625 0.703125q0.78125 0.671875 0.71875 1.8125l-0.921875 0q0.046875 -0.75 -0.46875 -1.21875q-0.515625 -0.484375 -1.375 -0.5q-0.890625 0 -1.5 0.421875q-0.609375 0.40625 -0.6875 1.09375q-0.125 1.015625 1.234375 1.421875l0.96875 0.28125l0.53125 0.171875q1.765625 0.671875 1.65625 2.171875q-0.0625 1.015625 -0.875 1.671875q-0.8125 0.65625 -2.109375 0.734375l-0.3125 0q-0.859375 -0.015625 -1.546875 -0.328125q-0.6875 -0.328125 -1.0625 -0.890625q-0.359375 -0.578125 -0.3125 -1.3125l0.9375 0q0 0.796875 0.53125 1.265625q0.546875 0.453125 1.484375 0.46875q0.9375 0 1.59375 -0.421875q0.65625 -0.421875 0.75 -1.140625zm5.875 -8.421875l-0.375 2.171875l1.6875 0l-0.125 0.765625l-1.703125 0l-0.9375 5.640625l-0.015625 0.484375q0 0.84375 0.78125 0.875q0.25 0 0.765625 -0.0625l-0.046875 0.78125q-0.453125 0.125 -0.9375 0.109375q-0.8125 -0.015625 -1.1875 -0.578125q-0.375 -0.5625 -0.28125 -1.625l0.9375 -5.625l-1.515625 0l0.140625 -0.765625l1.5 0l0.375 -2.171875l0.9375 0zm6.6796875 10.625l-0.9375 0l2.078125 -12.0l0.9375 0l-2.078125 12.0zm3.5546875 0l-0.9375 0l1.46875 -8.453125l0.9375 0l-1.46875 8.453125zm0.796875 -10.90625q0.03125 -0.5 0.671875 -0.640625q0.296875 0.0625 0.421875 0.203125q0.140625 0.125 0.171875 0.4375q-0.078125 0.296875 -0.234375 0.4375q-0.140625 0.140625 -0.4375 0.203125q-0.625 -0.09375 -0.59375 -0.640625zm4.4453125 6.65625l-1.25 1.0625l-0.546875 3.1875l-0.9375 0l2.09375 -12.0l0.921875 0l-1.328125 7.609375l0.96875 -0.890625l3.6875 -3.171875l1.234375 0l-4.15625 3.59375l2.921875 4.859375l-1.03125 0l-2.578125 -4.25zm8.1484375 4.40625q-1.015625 -0.015625 -1.765625 -0.5625q-0.734375 -0.5625 -1.09375 -1.5q-0.34375 -0.953125 -0.234375 -2.0625l0.015625 -0.265625q0.109375 -1.171875 0.6875 -2.21875q0.59375 -1.0625 1.484375 -1.625q0.90625 -0.5625 1.9375 -0.53125q0.9375 0.015625 1.59375 0.515625q0.65625 0.5 0.953125 1.390625q0.296875 0.890625 0.1875 1.96875l-0.0625 0.5625l-5.859375 0l-0.015625 0.1875q-0.125 0.859375 0.109375 1.640625q0.25 0.765625 0.796875 1.234375q0.5625 0.453125 1.328125 0.46875q0.75 0.015625 1.34375 -0.296875q0.609375 -0.3125 1.125 -0.828125l0.546875 0.4375q-0.578125 0.734375 -1.359375 1.125q-0.78125 0.375 -1.71875 0.359375zm0.984375 -7.96875q-1.015625 -0.046875 -1.828125 0.71875q-0.796875 0.75 -1.203125 2.125l4.90625 0.015625l0.015625 -0.125q0.140625 -1.109375 -0.390625 -1.90625q-0.53125 -0.796875 -1.5 -0.828125zm12.8671875 7.8125q-0.046875 -0.296875 -0.03125 -0.59375l0.078125 -0.59375q-0.59375 0.640625 -1.34375 1.0q-0.75 0.359375 -1.625 0.34375q-1.078125 -0.015625 -1.75 -0.671875q-0.65625 -0.671875 -0.59375 -1.671875q0.0625 -0.828125 0.578125 -1.4375q0.515625 -0.625 1.453125 -0.953125q0.953125 -0.34375 2.125 -0.34375l1.71875 0l0.140625 -0.96875q0.09375 -0.859375 -0.375 -1.375q-0.46875 -0.53125 -1.375 -0.5625q-0.921875 -0.015625 -1.609375 0.453125q-0.6875 0.46875 -0.859375 1.25l-0.90625 0q0.15625 -1.109375 1.140625 -1.8125q0.984375 -0.703125 2.328125 -0.6875q1.296875 0.03125 2.0 0.796875q0.71875 0.75 0.578125 1.96875l-0.703125 4.25l-0.0625 0.671875q-0.015625 0.421875 0.0625 0.84375l-0.015625 0.09375l-0.953125 0zm-2.765625 -0.671875q0.859375 0.03125 1.640625 -0.40625q0.78125 -0.4375 1.296875 -1.25l0.328125 -1.875l-1.5 0q-1.421875 0 -2.328125 0.5q-0.890625 0.5 -0.984375 1.4375q-0.0625 0.6875 0.359375 1.140625q0.4375 0.4375 1.1875 0.453125zm19.585938 -10.703125l-1.3125 7.6875q-0.28125 1.796875 -1.515625 2.84375q-1.21875 1.046875 -2.984375 1.015625q-1.09375 -0.03125 -1.90625 -0.515625q-0.796875 -0.484375 -1.15625 -1.359375q-0.359375 -0.875 -0.234375 -1.96875l1.328125 -7.703125l0.9375 0l-1.3125 7.71875q-0.15625 1.3125 0.484375 2.140625q0.65625 0.8125 1.90625 0.859375q1.3125 0.046875 2.25 -0.71875q0.953125 -0.78125 1.21875 -2.15625l1.34375 -7.84375l0.953125 0zm5.625 6.640625l-3.203125 0l-0.828125 4.734375l-0.96875 0l1.984375 -11.375l3.359375 0q1.703125 0 2.625 0.890625q0.921875 0.890625 0.78125 2.390625q-0.125 1.140625 -0.859375 1.96875q-0.734375 0.828125 -1.96875 1.203125l1.9375 4.8125l0 0.109375l-1.015625 0l-1.84375 -4.734375zm-3.0625 -0.828125l2.8125 0.015625q1.203125 0 2.046875 -0.703125q0.859375 -0.71875 1.0 -1.84375q0.125 -1.09375 -0.5 -1.75q-0.609375 -0.671875 -1.8125 -0.703125l-2.6875 -0.015625l-0.859375 5.0zm9.1796875 5.5625l-0.953125 0l1.96875 -11.375l0.953125 0l-1.96875 11.375zm6.3515625 -4.515625q-0.46875 2.9375 -1.6875 5.09375q-1.21875 2.15625 -3.0 3.109375l-0.15625 -0.609375q1.484375 -1.015625 2.46875 -2.953125q1.0 -1.921875 1.4375 -4.59375l0.03125 -0.15625q0.1875 -1.328125 0.171875 -2.578125q-0.046875 -1.796875 -0.5 -3.046875q-0.4375 -1.25 -1.234375 -1.90625l0.28125 -0.59375q1.21875 0.890625 1.8125 2.6875q0.609375 1.796875 0.515625 4.046875q-0.03125 0.734375 -0.125 1.375l-0.015625 0.125zm1.1171875 6.65625l-0.515625 -0.4375q0.90625 -1.03125 1.078125 -2.0625l0.1875 -1.109375l0.90625 0l-0.171875 1.125q-0.265625 1.46875 -1.484375 2.484375z" fill-rule="nonzero"/><path fill="#9900ff" d="m590.42224 332.32864l0 0.671875l0.3125 -0.734375l3.078125 -6.4375l0.796875 0l0.84375 6.453125l0.046875 0.796875l0.3125 -0.796875l2.796875 -6.453125l1.0 0l-3.859375 8.453125l-0.796875 0l-0.9375 -6.703125l0 -0.46875l-0.1875 0.46875l-3.234375 6.703125l-0.796875 0l-0.890625 -8.453125l0.875 -0.015625l0.640625 6.515625zm10.515625 1.953125l-0.9375 0l1.46875 -8.453125l0.9375 0l-1.46875 8.453125zm0.796875 -10.90625q0.03125 -0.5 0.671875 -0.640625q0.296875 0.0625 0.421875 0.203125q0.140625 0.125 0.171875 0.4375q-0.078125 0.296875 -0.234375 0.4375q-0.140625 0.140625 -0.4375 0.203125q-0.625 -0.09375 -0.59375 -0.640625zm4.9921875 0.28125l-0.375 2.171875l1.6875 0l-0.125 0.765625l-1.703125 0l-0.9375 5.640625l-0.015625 0.484375q0 0.84375 0.78125 0.875q0.25 0 0.765625 -0.0625l-0.046875 0.78125q-0.453125 0.125 -0.9375 0.109375q-0.8125 -0.015625 -1.1875 -0.578125q-0.375 -0.5625 -0.28125 -1.625l0.9375 -5.625l-1.515625 0l0.140625 -0.765625l1.5 0l0.375 -2.171875l0.9375 0zm3.875 3.59375q1.21875 -1.609375 2.875 -1.578125q1.21875 0.03125 1.765625 0.859375q0.5625 0.8125 0.390625 2.25l-0.921875 5.5l-0.921875 0l0.921875 -5.515625q0.046875 -0.453125 0.015625 -0.859375q-0.125 -1.390625 -1.515625 -1.4375q-0.8125 -0.015625 -1.53125 0.5q-0.703125 0.5 -1.25 1.515625l-1.0 5.796875l-0.921875 0l2.09375 -12.0l0.921875 0l-0.921875 4.96875zm15.6171875 7.03125q-0.046875 -0.296875 -0.03125 -0.59375l0.078125 -0.59375q-0.59375 0.640625 -1.34375 1.0q-0.75 0.359375 -1.625 0.34375q-1.078125 -0.015625 -1.75 -0.671875q-0.65625 -0.671875 -0.59375 -1.671875q0.0625 -0.828125 0.578125 -1.4375q0.515625 -0.625 1.453125 -0.953125q0.953125 -0.34375 2.125 -0.34375l1.71875 0l0.140625 -0.96875q0.09375 -0.859375 -0.375 -1.375q-0.46875 -0.53125 -1.375 -0.5625q-0.921875 -0.015625 -1.609375 0.453125q-0.6875 0.46875 -0.859375 1.25l-0.90625 0q0.15625 -1.109375 1.140625 -1.8125q0.984375 -0.703125 2.328125 -0.6875q1.296875 0.03125 2.0 0.796875q0.71875 0.75 0.578125 1.96875l-0.703125 4.25l-0.0625 0.671875q-0.015625 0.421875 0.0625 0.84375l-0.015625 0.09375l-0.953125 0zm-2.765625 -0.671875q0.859375 0.03125 1.640625 -0.40625q0.78125 -0.4375 1.296875 -1.25l0.328125 -1.875l-1.5 0q-1.421875 0 -2.328125 0.5q-0.890625 0.5 -0.984375 1.4375q-0.0625 0.6875 0.359375 1.140625q0.4375 0.4375 1.1875 0.453125zm12.0703125 -7.78125l-0.265625 1.375q1.140625 -1.5625 2.859375 -1.53125q0.890625 0.015625 1.484375 0.453125q0.59375 0.421875 0.734375 1.1875q0.578125 -0.796875 1.34375 -1.21875q0.765625 -0.4375 1.671875 -0.421875q1.203125 0.015625 1.78125 0.796875q0.59375 0.765625 0.484375 2.125l-0.015625 0.171875l-0.921875 5.515625l-0.9375 0l0.921875 -5.53125q0.046875 -0.453125 0.015625 -0.875q-0.15625 -1.375 -1.578125 -1.40625q-0.953125 -0.015625 -1.765625 0.625q-0.796875 0.640625 -1.0 1.59375l-0.96875 5.59375l-0.921875 0l0.9375 -5.59375q0.21875 -2.15625 -1.59375 -2.21875q-0.890625 -0.015625 -1.671875 0.5625q-0.765625 0.578125 -1.03125 1.4375l-1.0 5.8125l-0.9375 0l1.46875 -8.453125l0.90625 0zm14.8671875 8.609375q-1.015625 -0.015625 -1.765625 -0.5625q-0.734375 -0.5625 -1.09375 -1.5q-0.34375 -0.953125 -0.234375 -2.0625l0.015625 -0.265625q0.109375 -1.171875 0.6875 -2.21875q0.59375 -1.0625 1.484375 -1.625q0.90625 -0.5625 1.9375 -0.53125q0.9375 0.015625 1.59375 0.515625q0.65625 0.5 0.953125 1.390625q0.296875 0.890625 0.1875 1.96875l-0.0625 0.5625l-5.859375 0l-0.015625 0.1875q-0.125 0.859375 0.109375 1.640625q0.25 0.765625 0.796875 1.234375q0.5625 0.453125 1.328125 0.46875q0.75 0.015625 1.34375 -0.296875q0.609375 -0.3125 1.125 -0.828125l0.546875 0.4375q-0.578125 0.734375 -1.359375 1.125q-0.78125 0.375 -1.71875 0.359375zm0.984375 -7.96875q-1.015625 -0.046875 -1.828125 0.71875q-0.796875 0.75 -1.203125 2.125l4.90625 0.015625l0.015625 -0.125q0.140625 -1.109375 -0.390625 -1.90625q-0.53125 -0.796875 -1.5 -0.828125zm7.03125 -2.8125l-0.375 2.171875l1.6875 0l-0.125 0.765625l-1.703125 0l-0.9375 5.640625l-0.015625 0.484375q0 0.84375 0.78125 0.875q0.25 0 0.765625 -0.0625l-0.046875 0.78125q-0.453125 0.125 -0.9375 0.109375q-0.8125 -0.015625 -1.1875 -0.578125q-0.375 -0.5625 -0.28125 -1.625l0.9375 -5.625l-1.515625 0l0.140625 -0.765625l1.5 0l0.375 -2.171875l0.9375 0zm3.875 3.59375q1.21875 -1.609375 2.875 -1.578125q1.21875 0.03125 1.765625 0.859375q0.5625 0.8125 0.390625 2.25l-0.921875 5.5l-0.921875 0l0.921875 -5.515625q0.046875 -0.453125 0.015625 -0.859375q-0.125 -1.390625 -1.515625 -1.4375q-0.8125 -0.015625 -1.53125 0.5q-0.703125 0.5 -1.25 1.515625l-1.0 5.796875l-0.921875 0l2.09375 -12.0l0.921875 0l-0.921875 4.96875zm6.734375 2.71875q0.140625 -1.21875 0.75 -2.234375q0.609375 -1.03125 1.515625 -1.5625q0.90625 -0.53125 1.96875 -0.5q1.046875 0.015625 1.78125 0.578125q0.75 0.546875 1.078125 1.515625q0.34375 0.96875 0.234375 2.140625l-0.015625 0.140625q-0.234375 2.0 -1.421875 3.21875q-1.171875 1.21875 -2.828125 1.171875q-1.421875 -0.015625 -2.28125 -1.046875q-0.84375 -1.03125 -0.828125 -2.703125l0.015625 -0.453125l0.03125 -0.265625zm0.90625 0.265625q-0.109375 0.9375 0.125 1.71875q0.25 0.78125 0.765625 1.234375q0.53125 0.4375 1.3125 0.46875q0.84375 0.015625 1.53125 -0.421875q0.703125 -0.453125 1.15625 -1.265625q0.453125 -0.8125 0.59375 -1.796875l0.015625 -0.265625q0.140625 -1.5 -0.46875 -2.453125q-0.59375 -0.96875 -1.75 -0.984375q-1.25 -0.046875 -2.15625 0.96875q-0.90625 1.0 -1.109375 2.65625l-0.015625 0.140625zm8.0078125 -0.203125q0.1875 -1.328125 0.734375 -2.359375q0.546875 -1.03125 1.328125 -1.53125q0.796875 -0.5 1.78125 -0.46875q0.75 0.015625 1.359375 0.34375q0.625 0.328125 0.984375 1.0l0.859375 -4.734375l0.921875 0l-2.078125 12.0l-0.875 0l0.21875 -1.125q-1.109375 1.328125 -2.734375 1.28125q-1.1875 -0.03125 -1.859375 -0.921875q-0.65625 -0.890625 -0.6875 -2.390625q-0.015625 -0.484375 0.03125 -0.9375l0.015625 -0.15625zm0.9375 0.15625q-0.0625 0.515625 -0.046875 1.109375q0.03125 1.078125 0.5 1.6875q0.46875 0.609375 1.328125 0.640625q0.859375 0.03125 1.515625 -0.390625q0.65625 -0.421875 1.109375 -1.125l0.6875 -3.984375q-0.234375 -0.765625 -0.75 -1.1875q-0.515625 -0.4375 -1.328125 -0.46875q-1.1875 -0.03125 -1.984375 0.921875q-0.78125 0.9375 -1.015625 2.625l-0.015625 0.171875zm16.585938 1.890625q0.125 -1.078125 -1.3125 -1.5625l-1.34375 -0.40625q-1.84375 -0.625 -1.75 -2.078125q0.0625 -1.0625 0.96875 -1.71875q0.921875 -0.65625 2.1875 -0.640625q1.25 0.015625 2.015625 0.703125q0.78125 0.671875 0.71875 1.8125l-0.921875 0q0.046875 -0.75 -0.46875 -1.21875q-0.515625 -0.484375 -1.375 -0.5q-0.890625 0 -1.5 0.421875q-0.609375 0.40625 -0.6875 1.09375q-0.125 1.015625 1.234375 1.421875l0.96875 0.28125l0.53125 0.171875q1.765625 0.671875 1.65625 2.171875q-0.0625 1.015625 -0.875 1.671875q-0.8125 0.65625 -2.109375 0.734375l-0.3125 0q-0.859375 -0.015625 -1.546875 -0.328125q-0.6875 -0.328125 -1.0625 -0.890625q-0.359375 -0.578125 -0.3125 -1.3125l0.9375 0q0 0.796875 0.53125 1.265625q0.546875 0.453125 1.484375 0.46875q0.9375 0 1.59375 -0.421875q0.65625 -0.421875 0.75 -1.140625zm6.140625 2.375q-0.71875 -0.015625 -1.375 -0.3125q-0.640625 -0.296875 -1.03125 -0.921875l-0.78125 4.3125l-0.9375 0l2.046875 -11.703125l0.859375 0l-0.21875 1.1875q1.09375 -1.390625 2.75 -1.34375q1.1875 0.03125 1.84375 0.890625q0.671875 0.84375 0.703125 2.40625q0 0.484375 -0.046875 0.953125l-0.03125 0.21875q-0.203125 1.359375 -0.75 2.359375q-0.53125 0.984375 -1.3125 1.484375q-0.765625 0.484375 -1.71875 0.46875zm2.875 -4.53125l0.046875 -0.75q0.03125 -1.25 -0.453125 -1.953125q-0.46875 -0.71875 -1.40625 -0.75q-0.828125 -0.015625 -1.5 0.40625q-0.65625 0.421875 -1.125 1.21875l-0.6875 4.0625q0.25 0.71875 0.78125 1.09375q0.546875 0.375 1.3125 0.40625q1.125 0.03125 1.90625 -0.84375q0.796875 -0.890625 1.0625 -2.484375l0.0625 -0.40625zm5.6171875 4.515625q-1.015625 -0.015625 -1.765625 -0.5625q-0.734375 -0.5625 -1.09375 -1.5q-0.34375 -0.953125 -0.234375 -2.0625l0.015625 -0.265625q0.109375 -1.171875 0.6875 -2.21875q0.59375 -1.0625 1.484375 -1.625q0.90625 -0.5625 1.9375 -0.53125q0.9375 0.015625 1.59375 0.515625q0.65625 0.5 0.953125 1.390625q0.296875 0.890625 0.1875 1.96875l-0.0625 0.5625l-5.859375 0l-0.015625 0.1875q-0.125 0.859375 0.109375 1.640625q0.25 0.765625 0.796875 1.234375q0.5625 0.453125 1.328125 0.46875q0.75 0.015625 1.34375 -0.296875q0.609375 -0.3125 1.125 -0.828125l0.546875 0.4375q-0.578125 0.734375 -1.359375 1.125q-0.78125 0.375 -1.71875 0.359375zm0.984375 -7.96875q-1.015625 -0.046875 -1.828125 0.71875q-0.796875 0.75 -1.203125 2.125l4.90625 0.015625l0.015625 -0.125q0.140625 -1.109375 -0.390625 -1.90625q-0.53125 -0.796875 -1.5 -0.828125zm7.03125 7.1875q0.921875 0.03125 1.625 -0.515625q0.703125 -0.546875 0.9375 -1.46875l0.890625 0q-0.234375 1.265625 -1.234375 2.046875q-1.0 0.765625 -2.265625 0.734375q-1.03125 -0.03125 -1.734375 -0.5625q-0.6875 -0.546875 -1.0 -1.5q-0.296875 -0.953125 -0.1875 -2.15625l0.03125 -0.328125q0.09375 -0.828125 0.390625 -1.59375q0.3125 -0.78125 0.828125 -1.375q0.515625 -0.59375 1.234375 -0.9375q0.71875 -0.359375 1.609375 -0.328125q1.296875 0.03125 2.0625 0.875q0.765625 0.84375 0.71875 2.140625l-0.875 -0.015625q0.015625 -0.96875 -0.515625 -1.5625q-0.515625 -0.609375 -1.421875 -0.640625q-0.96875 -0.03125 -1.71875 0.5625q-0.734375 0.59375 -1.109375 1.6875q-0.375 1.078125 -0.359375 2.296875q0.03125 1.25 0.5625 1.9375q0.546875 0.671875 1.53125 0.703125zm5.8359375 0.625l-0.9375 0l1.46875 -8.453125l0.9375 0l-1.46875 8.453125zm0.796875 -10.90625q0.03125 -0.5 0.671875 -0.640625q0.296875 0.0625 0.421875 0.203125q0.140625 0.125 0.171875 0.4375q-0.078125 0.296875 -0.234375 0.4375q-0.140625 0.140625 -0.4375 0.203125q-0.625 -0.09375 -0.59375 -0.640625zm2.2578125 10.90625l1.34375 -7.6875l-1.375 0l0.140625 -0.765625l1.359375 0l0.125 -0.953125q0.21875 -1.328125 1.046875 -2.046875q0.828125 -0.734375 2.109375 -0.71875q0.9375 0.015625 2.09375 0.46875l-0.234375 0.796875q-0.9375 -0.421875 -1.828125 -0.4375q-0.953125 0 -1.53125 0.53125q-0.5625 0.515625 -0.71875 1.40625l-0.140625 0.953125l1.921875 0l-0.125 0.765625l-1.921875 0l-1.328125 7.6875l-0.9375 0zm5.328125 0l-0.9375 0l1.484375 -8.453125l0.921875 0l-1.46875 8.453125zm5.8203125 -0.625q0.921875 0.03125 1.625 -0.515625q0.703125 -0.546875 0.9375 -1.46875l0.890625 0q-0.234375 1.265625 -1.234375 2.046875q-1.0 0.765625 -2.265625 0.734375q-1.03125 -0.03125 -1.734375 -0.5625q-0.6875 -0.546875 -1.0 -1.5q-0.296875 -0.953125 -0.1875 -2.15625l0.03125 -0.328125q0.09375 -0.828125 0.390625 -1.59375q0.3125 -0.78125 0.828125 -1.375q0.515625 -0.59375 1.234375 -0.9375q0.71875 -0.359375 1.609375 -0.328125q1.296875 0.03125 2.0625 0.875q0.765625 0.84375 0.71875 2.140625l-0.875 -0.015625q0.015625 -0.96875 -0.515625 -1.5625q-0.515625 -0.609375 -1.421875 -0.640625q-0.96875 -0.03125 -1.71875 0.5625q-0.734375 0.59375 -1.109375 1.6875q-0.375 1.078125 -0.359375 2.296875q0.03125 1.25 0.5625 1.9375q0.546875 0.671875 1.53125 0.703125zm9.6875 0.625l-0.9375 0l1.46875 -8.453125l0.9375 0l-1.46875 8.453125zm0.796875 -10.90625q0.03125 -0.5 0.671875 -0.640625q0.296875 0.0625 0.421875 0.203125q0.140625 0.125 0.171875 0.4375q-0.078125 0.296875 -0.234375 0.4375q-0.140625 0.140625 -0.4375 0.203125q-0.625 -0.09375 -0.59375 -0.640625zm4.0703125 2.453125l-0.28125 1.4375q0.5625 -0.78125 1.296875 -1.1875q0.75 -0.421875 1.59375 -0.40625q1.21875 0.03125 1.765625 0.859375q0.5625 0.8125 0.390625 2.25l-0.921875 5.5l-0.921875 0l0.921875 -5.515625q0.046875 -0.453125 0.015625 -0.859375q-0.125 -1.390625 -1.515625 -1.4375q-0.8125 -0.015625 -1.53125 0.5q-0.703125 0.5 -1.25 1.515625l-1.0 5.796875l-0.921875 0l1.46875 -8.453125l0.890625 0zm9.5234375 -2.171875l-0.375 2.171875l1.6875 0l-0.125 0.765625l-1.703125 0l-0.9375 5.640625l-0.015625 0.484375q0 0.84375 0.78125 0.875q0.25 0 0.765625 -0.0625l-0.046875 0.78125q-0.453125 0.125 -0.9375 0.109375q-0.8125 -0.015625 -1.1875 -0.578125q-0.375 -0.5625 -0.28125 -1.625l0.9375 -5.625l-1.515625 0l0.140625 -0.765625l1.5 0l0.375 -2.171875l0.9375 0zm5.140625 10.78125q-1.015625 -0.015625 -1.765625 -0.5625q-0.734375 -0.5625 -1.09375 -1.5q-0.34375 -0.953125 -0.234375 -2.0625l0.015625 -0.265625q0.109375 -1.171875 0.6875 -2.21875q0.59375 -1.0625 1.484375 -1.625q0.90625 -0.5625 1.9375 -0.53125q0.9375 0.015625 1.59375 0.515625q0.65625 0.5 0.953125 1.390625q0.296875 0.890625 0.1875 1.96875l-0.0625 0.5625l-5.859375 0l-0.015625 0.1875q-0.125 0.859375 0.109375 1.640625q0.25 0.765625 0.796875 1.234375q0.5625 0.453125 1.328125 0.46875q0.75 0.015625 1.34375 -0.296875q0.609375 -0.3125 1.125 -0.828125l0.546875 0.4375q-0.578125 0.734375 -1.359375 1.125q-0.78125 0.375 -1.71875 0.359375zm0.984375 -7.96875q-1.015625 -0.046875 -1.828125 0.71875q-0.796875 0.75 -1.203125 2.125l4.90625 0.015625l0.015625 -0.125q0.140625 -1.109375 -0.390625 -1.90625q-0.53125 -0.796875 -1.5 -0.828125zm8.921875 0.140625q-0.3125 -0.0625 -0.625 -0.0625q-0.890625 0 -1.640625 0.546875q-0.734375 0.53125 -0.984375 1.375l-1.0 5.8125l-0.921875 0l1.46875 -8.453125l0.921875 0l-0.28125 1.34375q0.453125 -0.75 1.109375 -1.140625q0.65625 -0.390625 1.4375 -0.375q0.265625 0 0.640625 0.109375l-0.125 0.84375zm3.671875 7.84375q-0.71875 -0.015625 -1.375 -0.3125q-0.640625 -0.296875 -1.03125 -0.921875l-0.78125 4.3125l-0.9375 0l2.046875 -11.703125l0.859375 0l-0.21875 1.1875q1.09375 -1.390625 2.75 -1.34375q1.1875 0.03125 1.84375 0.890625q0.671875 0.84375 0.703125 2.40625q0 0.484375 -0.046875 0.953125l-0.03125 0.21875q-0.203125 1.359375 -0.75 2.359375q-0.53125 0.984375 -1.3125 1.484375q-0.765625 0.484375 -1.71875 0.46875zm2.875 -4.53125l0.046875 -0.75q0.03125 -1.25 -0.453125 -1.953125q-0.46875 -0.71875 -1.40625 -0.75q-0.828125 -0.015625 -1.5 0.40625q-0.65625 0.421875 -1.125 1.21875l-0.6875 4.0625q0.25 0.71875 0.78125 1.09375q0.546875 0.375 1.3125 0.40625q1.125 0.03125 1.90625 -0.84375q0.796875 -0.890625 1.0625 -2.484375l0.0625 -0.40625zm7.4296875 -3.3125q-0.3125 -0.0625 -0.625 -0.0625q-0.890625 0 -1.640625 0.546875q-0.734375 0.53125 -0.984375 1.375l-1.0 5.8125l-0.921875 0l1.46875 -8.453125l0.921875 0l-0.28125 1.34375q0.453125 -0.75 1.109375 -1.140625q0.65625 -0.390625 1.4375 -0.375q0.265625 0 0.640625 0.109375l-0.125 0.84375zm3.3359375 7.828125q-1.015625 -0.015625 -1.765625 -0.5625q-0.734375 -0.5625 -1.09375 -1.5q-0.34375 -0.953125 -0.234375 -2.0625l0.015625 -0.265625q0.109375 -1.171875 0.6875 -2.21875q0.59375 -1.0625 1.484375 -1.625q0.90625 -0.5625 1.9375 -0.53125q0.9375 0.015625 1.59375 0.515625q0.65625 0.5 0.953125 1.390625q0.296875 0.890625 0.1875 1.96875l-0.0625 0.5625l-5.859375 0l-0.015625 0.1875q-0.125 0.859375 0.109375 1.640625q0.25 0.765625 0.796875 1.234375q0.5625 0.453125 1.328125 0.46875q0.75 0.015625 1.34375 -0.296875q0.609375 -0.3125 1.125 -0.828125l0.546875 0.4375q-0.578125 0.734375 -1.359375 1.125q-0.78125 0.375 -1.71875 0.359375zm0.984375 -7.96875q-1.015625 -0.046875 -1.828125 0.71875q-0.796875 0.75 -1.203125 2.125l4.90625 0.015625l0.015625 -0.125q0.140625 -1.109375 -0.390625 -1.90625q-0.53125 -0.796875 -1.5 -0.828125zm7.03125 -2.8125l-0.375 2.171875l1.6875 0l-0.125 0.765625l-1.703125 0l-0.9375 5.640625l-0.015625 0.484375q0 0.84375 0.78125 0.875q0.25 0 0.765625 -0.0625l-0.046875 0.78125q-0.453125 0.125 -0.9375 0.109375q-0.8125 -0.015625 -1.1875 -0.578125q-0.375 -0.5625 -0.28125 -1.625l0.9375 -5.625l-1.515625 0l0.140625 -0.765625l1.5 0l0.375 -2.171875l0.9375 0zm7.046875 10.625q-0.046875 -0.296875 -0.03125 -0.59375l0.078125 -0.59375q-0.59375 0.640625 -1.34375 1.0q-0.75 0.359375 -1.625 0.34375q-1.078125 -0.015625 -1.75 -0.671875q-0.65625 -0.671875 -0.59375 -1.671875q0.0625 -0.828125 0.578125 -1.4375q0.515625 -0.625 1.453125 -0.953125q0.953125 -0.34375 2.125 -0.34375l1.71875 0l0.140625 -0.96875q0.09375 -0.859375 -0.375 -1.375q-0.46875 -0.53125 -1.375 -0.5625q-0.921875 -0.015625 -1.609375 0.453125q-0.6875 0.46875 -0.859375 1.25l-0.90625 0q0.15625 -1.109375 1.140625 -1.8125q0.984375 -0.703125 2.328125 -0.6875q1.296875 0.03125 2.0 0.796875q0.71875 0.75 0.578125 1.96875l-0.703125 4.25l-0.0625 0.671875q-0.015625 0.421875 0.0625 0.84375l-0.015625 0.09375l-0.953125 0zm-2.765625 -0.671875q0.859375 0.03125 1.640625 -0.40625q0.78125 -0.4375 1.296875 -1.25l0.328125 -1.875l-1.5 0q-1.421875 0 -2.328125 0.5q-0.890625 0.5 -0.984375 1.4375q-0.0625 0.6875 0.359375 1.140625q0.4375 0.4375 1.1875 0.453125zm9.171875 -9.953125l-0.375 2.171875l1.6875 0l-0.125 0.765625l-1.703125 0l-0.9375 5.640625l-0.015625 0.484375q0 0.84375 0.78125 0.875q0.25 0 0.765625 -0.0625l-0.046875 0.78125q-0.453125 0.125 -0.9375 0.109375q-0.8125 -0.015625 -1.1875 -0.578125q-0.375 -0.5625 -0.28125 -1.625l0.9375 -5.625l-1.515625 0l0.140625 -0.765625l1.5 0l0.375 -2.171875l0.9375 0zm2.828125 10.625l-0.9375 0l1.46875 -8.453125l0.9375 0l-1.46875 8.453125zm0.796875 -10.90625q0.03125 -0.5 0.671875 -0.640625q0.296875 0.0625 0.421875 0.203125q0.140625 0.125 0.171875 0.4375q-0.078125 0.296875 -0.234375 0.4375q-0.140625 0.140625 -0.4375 0.203125q-0.625 -0.09375 -0.59375 -0.640625zm1.9453125 6.59375q0.140625 -1.21875 0.75 -2.234375q0.609375 -1.03125 1.515625 -1.5625q0.90625 -0.53125 1.96875 -0.5q1.046875 0.015625 1.78125 0.578125q0.75 0.546875 1.078125 1.515625q0.34375 0.96875 0.234375 2.140625l-0.015625 0.140625q-0.234375 2.0 -1.421875 3.21875q-1.171875 1.21875 -2.828125 1.171875q-1.421875 -0.015625 -2.28125 -1.046875q-0.84375 -1.03125 -0.828125 -2.703125l0.015625 -0.453125l0.03125 -0.265625zm0.90625 0.265625q-0.109375 0.9375 0.125 1.71875q0.25 0.78125 0.765625 1.234375q0.53125 0.4375 1.3125 0.46875q0.84375 0.015625 1.53125 -0.421875q0.703125 -0.453125 1.15625 -1.265625q0.453125 -0.8125 0.59375 -1.796875l0.015625 -0.265625q0.140625 -1.5 -0.46875 -2.453125q-0.59375 -0.96875 -1.75 -0.984375q-1.25 -0.046875 -2.15625 0.96875q-0.90625 1.0 -1.109375 2.65625l-0.015625 0.140625zm9.9921875 -4.40625l-0.28125 1.4375q0.5625 -0.78125 1.296875 -1.1875q0.75 -0.421875 1.59375 -0.40625q1.21875 0.03125 1.765625 0.859375q0.5625 0.8125 0.390625 2.25l-0.921875 5.5l-0.921875 0l0.921875 -5.515625q0.046875 -0.453125 0.015625 -0.859375q-0.125 -1.390625 -1.515625 -1.4375q-0.8125 -0.015625 -1.53125 0.5q-0.703125 0.5 -1.25 1.515625l-1.0 5.796875l-0.921875 0l1.46875 -8.453125l0.890625 0z" fill-rule="nonzero"/><path fill="#000000" fill-opacity="0.0" d="m315.921 14.209973l275.18112 0l0 59.023624l-275.18112 0z" fill-rule="evenodd"/><path fill="#4a86e8" d="m370.97638 38.206783l2.328125 10.015625l5.8125 -10.015625l1.28125 0l-1.96875 11.375l-0.953125 0l0.859375 -5.0l0.9375 -4.921875l-5.796875 9.921875l-0.734375 0l-2.359375 -10.0l-0.796875 5.046875l-0.859375 4.953125l-0.953125 0l1.96875 -11.375l1.234375 0zm13.4453125 11.53125q-1.015625 -0.015625 -1.765625 -0.5625q-0.734375 -0.5625 -1.09375 -1.5q-0.34375 -0.953125 -0.234375 -2.0625l0.015625 -0.265625q0.109375 -1.171875 0.6875 -2.21875q0.59375 -1.0625 1.484375 -1.625q0.90625 -0.5625 1.9375 -0.53125q0.9375 0.015625 1.59375 0.515625q0.65625 0.5 0.953125 1.390625q0.296875 0.890625 0.1875 1.96875l-0.0625 0.5625l-5.859375 0l-0.015625 0.1875q-0.125 0.859375 0.109375 1.640625q0.25 0.765625 0.796875 1.234375q0.5625 0.453125 1.328125 0.46875q0.75 0.015625 1.34375 -0.296875q0.609375 -0.3125 1.125 -0.828125l0.546875 0.4375q-0.578125 0.734375 -1.359375 1.125q-0.78125 0.375 -1.71875 0.359375zm0.984375 -7.96875q-1.015625 -0.046875 -1.828125 0.71875q-0.796875 0.75 -1.203125 2.125l4.90625 0.015625l0.015625 -0.125q0.140625 -1.109375 -0.390625 -1.90625q-0.53125 -0.796875 -1.5 -0.828125zm7.03125 -2.8125l-0.375 2.171875l1.6875 0l-0.125 0.765625l-1.703125 0l-0.9375 5.640625l-0.015625 0.484375q0 0.84375 0.78125 0.875q0.25 0 0.765625 -0.0625l-0.046875 0.78125q-0.453125 0.125 -0.9375 0.109375q-0.8125 -0.015625 -1.1875 -0.578125q-0.375 -0.5625 -0.28125 -1.625l0.9375 -5.625l-1.515625 0l0.140625 -0.765625l1.5 0l0.375 -2.171875l0.9375 0zm3.875 3.59375q1.21875 -1.609375 2.875 -1.578125q1.21875 0.03125 1.765625 0.859375q0.5625 0.8125 0.390625 2.25l-0.921875 5.5l-0.921875 0l0.921875 -5.515625q0.046875 -0.453125 0.015625 -0.859375q-0.125 -1.390625 -1.515625 -1.4375q-0.8125 -0.015625 -1.53125 0.5q-0.703125 0.5 -1.25 1.515625l-1.0 5.796875l-0.921875 0l2.09375 -12.0l0.921875 0l-0.921875 4.96875zm6.734375 2.71875q0.140625 -1.21875 0.75 -2.234375q0.609375 -1.03125 1.515625 -1.5625q0.90625 -0.53125 1.96875 -0.5q1.046875 0.015625 1.78125 0.578125q0.75 0.546875 1.078125 1.515625q0.34375 0.96875 0.234375 2.140625l-0.015625 0.140625q-0.234375 2.0 -1.421875 3.21875q-1.171875 1.21875 -2.828125 1.171875q-1.421875 -0.015625 -2.28125 -1.046875q-0.84375 -1.03125 -0.828125 -2.703125l0.015625 -0.453125l0.03125 -0.265625zm0.90625 0.265625q-0.109375 0.9375 0.125 1.71875q0.25 0.78125 0.765625 1.234375q0.53125 0.4375 1.3125 0.46875q0.84375 0.015625 1.53125 -0.421875q0.703125 -0.453125 1.15625 -1.265625q0.453125 -0.8125 0.59375 -1.796875l0.015625 -0.265625q0.140625 -1.5 -0.46875 -2.453125q-0.59375 -0.96875 -1.75 -0.984375q-1.25 -0.046875 -2.15625 0.96875q-0.90625 1.0 -1.109375 2.65625l-0.015625 0.140625zm8.0078125 -0.203125q0.1875 -1.328125 0.734375 -2.359375q0.546875 -1.03125 1.328125 -1.53125q0.796875 -0.5 1.78125 -0.46875q0.75 0.015625 1.359375 0.34375q0.625 0.328125 0.984375 1.0l0.859375 -4.734375l0.921875 0l-2.078125 12.0l-0.875 0l0.21875 -1.125q-1.109375 1.328125 -2.734375 1.28125q-1.1875 -0.03125 -1.859375 -0.921875q-0.65625 -0.890625 -0.6875 -2.390625q-0.015625 -0.484375 0.03125 -0.9375l0.015625 -0.15625zm0.9375 0.15625q-0.0625 0.515625 -0.046875 1.109375q0.03125 1.078125 0.5 1.6875q0.46875 0.609375 1.328125 0.640625q0.859375 0.03125 1.515625 -0.390625q0.65625 -0.421875 1.109375 -1.125l0.6875 -3.984375q-0.234375 -0.765625 -0.75 -1.1875q-0.515625 -0.4375 -1.328125 -0.46875q-1.1875 -0.03125 -1.984375 0.921875q-0.78125 0.9375 -1.015625 2.625l-0.015625 0.171875zm16.585938 1.890625q0.125 -1.078125 -1.3125 -1.5625l-1.34375 -0.40625q-1.84375 -0.625 -1.75 -2.078125q0.0625 -1.0625 0.96875 -1.71875q0.921875 -0.65625 2.1875 -0.640625q1.25 0.015625 2.015625 0.703125q0.78125 0.671875 0.71875 1.8125l-0.921875 0q0.046875 -0.75 -0.46875 -1.21875q-0.515625 -0.484375 -1.375 -0.5q-0.890625 0 -1.5 0.421875q-0.609375 0.40625 -0.6875 1.09375q-0.125 1.015625 1.234375 1.421875l0.96875 0.28125l0.53125 0.171875q1.765625 0.671875 1.65625 2.171875q-0.0625 1.015625 -0.875 1.671875q-0.8125 0.65625 -2.109375 0.734375l-0.3125 0q-0.859375 -0.015625 -1.546875 -0.328125q-0.6875 -0.328125 -1.0625 -0.890625q-0.359375 -0.578125 -0.3125 -1.3125l0.9375 0q0 0.796875 0.53125 1.265625q0.546875 0.453125 1.484375 0.46875q0.9375 0 1.59375 -0.421875q0.65625 -0.421875 0.75 -1.140625zm6.140625 2.375q-0.71875 -0.015625 -1.375 -0.3125q-0.640625 -0.296875 -1.03125 -0.921875l-0.78125 4.3125l-0.9375 0l2.046875 -11.703125l0.859375 0l-0.21875 1.1875q1.09375 -1.390625 2.75 -1.34375q1.1875 0.03125 1.84375 0.890625q0.671875 0.84375 0.703125 2.40625q0 0.484375 -0.046875 0.953125l-0.03125 0.21875q-0.203125 1.359375 -0.75 2.359375q-0.53125 0.984375 -1.3125 1.484375q-0.765625 0.484375 -1.71875 0.46875zm2.875 -4.53125l0.046875 -0.75q0.03125 -1.25 -0.453125 -1.953125q-0.46875 -0.71875 -1.40625 -0.75q-0.828125 -0.015625 -1.5 0.40625q-0.65625 0.421875 -1.125 1.21875l-0.6875 4.0625q0.25 0.71875 0.78125 1.09375q0.546875 0.375 1.3125 0.40625q1.125 0.03125 1.90625 -0.84375q0.796875 -0.890625 1.0625 -2.484375l0.0625 -0.40625zm5.6171875 4.515625q-1.015625 -0.015625 -1.765625 -0.5625q-0.734375 -0.5625 -1.09375 -1.5q-0.34375 -0.953125 -0.234375 -2.0625l0.015625 -0.265625q0.109375 -1.171875 0.6875 -2.21875q0.59375 -1.0625 1.484375 -1.625q0.90625 -0.5625 1.9375 -0.53125q0.9375 0.015625 1.59375 0.515625q0.65625 0.5 0.953125 1.390625q0.296875 0.890625 0.1875 1.96875l-0.0625 0.5625l-5.859375 0l-0.015625 0.1875q-0.125 0.859375 0.109375 1.640625q0.25 0.765625 0.796875 1.234375q0.5625 0.453125 1.328125 0.46875q0.75 0.015625 1.34375 -0.296875q0.609375 -0.3125 1.125 -0.828125l0.546875 0.4375q-0.578125 0.734375 -1.359375 1.125q-0.78125 0.375 -1.71875 0.359375zm0.984375 -7.96875q-1.015625 -0.046875 -1.828125 0.71875q-0.796875 0.75 -1.203125 2.125l4.90625 0.015625l0.015625 -0.125q0.140625 -1.109375 -0.390625 -1.90625q-0.53125 -0.796875 -1.5 -0.828125zm7.03125 7.1875q0.921875 0.03125 1.625 -0.515625q0.703125 -0.546875 0.9375 -1.46875l0.890625 0q-0.234375 1.265625 -1.234375 2.046875q-1.0 0.765625 -2.265625 0.734375q-1.03125 -0.03125 -1.734375 -0.5625q-0.6875 -0.546875 -1.0 -1.5q-0.296875 -0.953125 -0.1875 -2.15625l0.03125 -0.328125q0.09375 -0.828125 0.390625 -1.59375q0.3125 -0.78125 0.828125 -1.375q0.515625 -0.59375 1.234375 -0.9375q0.71875 -0.359375 1.609375 -0.328125q1.296875 0.03125 2.0625 0.875q0.765625 0.84375 0.71875 2.140625l-0.875 -0.015625q0.015625 -0.96875 -0.515625 -1.5625q-0.515625 -0.609375 -1.421875 -0.640625q-0.96875 -0.03125 -1.71875 0.5625q-0.734375 0.59375 -1.109375 1.6875q-0.375 1.078125 -0.359375 2.296875q0.03125 1.25 0.5625 1.9375q0.546875 0.671875 1.53125 0.703125zm5.8359375 0.625l-0.9375 0l1.46875 -8.453125l0.9375 0l-1.46875 8.453125zm0.796875 -10.90625q0.03125 -0.5 0.671875 -0.640625q0.296875 0.0625 0.421875 0.203125q0.140625 0.125 0.171875 0.4375q-0.078125 0.296875 -0.234375 0.4375q-0.140625 0.140625 -0.4375 0.203125q-0.625 -0.09375 -0.59375 -0.640625zm2.2578125 10.90625l1.34375 -7.6875l-1.375 0l0.140625 -0.765625l1.359375 0l0.125 -0.953125q0.21875 -1.328125 1.046875 -2.046875q0.828125 -0.734375 2.109375 -0.71875q0.9375 0.015625 2.09375 0.46875l-0.234375 0.796875q-0.9375 -0.421875 -1.828125 -0.4375q-0.953125 0 -1.53125 0.53125q-0.5625 0.515625 -0.71875 1.40625l-0.140625 0.953125l1.921875 0l-0.125 0.765625l-1.921875 0l-1.328125 7.6875l-0.9375 0zm5.328125 0l-0.9375 0l1.484375 -8.453125l0.921875 0l-1.46875 8.453125zm5.8203125 -0.625q0.921875 0.03125 1.625 -0.515625q0.703125 -0.546875 0.9375 -1.46875l0.890625 0q-0.234375 1.265625 -1.234375 2.046875q-1.0 0.765625 -2.265625 0.734375q-1.03125 -0.03125 -1.734375 -0.5625q-0.6875 -0.546875 -1.0 -1.5q-0.296875 -0.953125 -0.1875 -2.15625l0.03125 -0.328125q0.09375 -0.828125 0.390625 -1.59375q0.3125 -0.78125 0.828125 -1.375q0.515625 -0.59375 1.234375 -0.9375q0.71875 -0.359375 1.609375 -0.328125q1.296875 0.03125 2.0625 0.875q0.765625 0.84375 0.71875 2.140625l-0.875 -0.015625q0.015625 -0.96875 -0.515625 -1.5625q-0.515625 -0.609375 -1.421875 -0.640625q-0.96875 -0.03125 -1.71875 0.5625q-0.734375 0.59375 -1.109375 1.6875q-0.375 1.078125 -0.359375 2.296875q0.03125 1.25 0.5625 1.9375q0.546875 0.671875 1.53125 0.703125zm9.6875 0.625l-0.9375 0l1.46875 -8.453125l0.9375 0l-1.46875 8.453125zm0.796875 -10.90625q0.03125 -0.5 0.671875 -0.640625q0.296875 0.0625 0.421875 0.203125q0.140625 0.125 0.171875 0.4375q-0.078125 0.296875 -0.234375 0.4375q-0.140625 0.140625 -0.4375 0.203125q-0.625 -0.09375 -0.59375 -0.640625zm2.0859375 6.65625q0.1875 -1.328125 0.734375 -2.359375q0.546875 -1.03125 1.328125 -1.53125q0.796875 -0.5 1.78125 -0.46875q0.75 0.015625 1.359375 0.34375q0.625 0.328125 0.984375 1.0l0.859375 -4.734375l0.921875 0l-2.078125 12.0l-0.875 0l0.21875 -1.125q-1.109375 1.328125 -2.734375 1.28125q-1.1875 -0.03125 -1.859375 -0.921875q-0.65625 -0.890625 -0.6875 -2.390625q-0.015625 -0.484375 0.03125 -0.9375l0.015625 -0.15625zm0.9375 0.15625q-0.0625 0.515625 -0.046875 1.109375q0.03125 1.078125 0.5 1.6875q0.46875 0.609375 1.328125 0.640625q0.859375 0.03125 1.515625 -0.390625q0.65625 -0.421875 1.109375 -1.125l0.6875 -3.984375q-0.234375 -0.765625 -0.75 -1.1875q-0.515625 -0.4375 -1.328125 -0.46875q-1.1875 -0.03125 -1.984375 0.921875q-0.78125 0.9375 -1.015625 2.625l-0.015625 0.171875zm10.75 4.25q-1.015625 -0.015625 -1.765625 -0.5625q-0.734375 -0.5625 -1.09375 -1.5q-0.34375 -0.953125 -0.234375 -2.0625l0.015625 -0.265625q0.109375 -1.171875 0.6875 -2.21875q0.59375 -1.0625 1.484375 -1.625q0.90625 -0.5625 1.9375 -0.53125q0.9375 0.015625 1.59375 0.515625q0.65625 0.5 0.953125 1.390625q0.296875 0.890625 0.1875 1.96875l-0.0625 0.5625l-5.859375 0l-0.015625 0.1875q-0.125 0.859375 0.109375 1.640625q0.25 0.765625 0.796875 1.234375q0.5625 0.453125 1.328125 0.46875q0.75 0.015625 1.34375 -0.296875q0.609375 -0.3125 1.125 -0.828125l0.546875 0.4375q-0.578125 0.734375 -1.359375 1.125q-0.78125 0.375 -1.71875 0.359375zm0.984375 -7.96875q-1.015625 -0.046875 -1.828125 0.71875q-0.796875 0.75 -1.203125 2.125l4.90625 0.015625l0.015625 -0.125q0.140625 -1.109375 -0.390625 -1.90625q-0.53125 -0.796875 -1.5 -0.828125zm6.109375 -0.640625l-0.28125 1.4375q0.5625 -0.78125 1.296875 -1.1875q0.75 -0.421875 1.59375 -0.40625q1.21875 0.03125 1.765625 0.859375q0.5625 0.8125 0.390625 2.25l-0.921875 5.5l-0.921875 0l0.921875 -5.515625q0.046875 -0.453125 0.015625 -0.859375q-0.125 -1.390625 -1.515625 -1.4375q-0.8125 -0.015625 -1.53125 0.5q-0.703125 0.5 -1.25 1.515625l-1.0 5.796875l-0.921875 0l1.46875 -8.453125l0.890625 0zm9.5234375 -2.171875l-0.375 2.171875l1.6875 0l-0.125 0.765625l-1.703125 0l-0.9375 5.640625l-0.015625 0.484375q0 0.84375 0.78125 0.875q0.25 0 0.765625 -0.0625l-0.046875 0.78125q-0.453125 0.125 -0.9375 0.109375q-0.8125 -0.015625 -1.1875 -0.578125q-0.375 -0.5625 -0.28125 -1.625l0.9375 -5.625l-1.515625 0l0.140625 -0.765625l1.5 0l0.375 -2.171875l0.9375 0zm2.828125 10.625l-0.9375 0l1.46875 -8.453125l0.9375 0l-1.46875 8.453125zm0.796875 -10.90625q0.03125 -0.5 0.671875 -0.640625q0.296875 0.0625 0.421875 0.203125q0.140625 0.125 0.171875 0.4375q-0.078125 0.296875 -0.234375 0.4375q-0.140625 0.140625 -0.4375 0.203125q-0.625 -0.09375 -0.59375 -0.640625zm2.2578125 10.90625l1.34375 -7.6875l-1.375 0l0.140625 -0.765625l1.359375 0l0.125 -0.953125q0.21875 -1.328125 1.046875 -2.046875q0.828125 -0.734375 2.109375 -0.71875q0.9375 0.015625 2.09375 0.46875l-0.234375 0.796875q-0.9375 -0.421875 -1.828125 -0.4375q-0.953125 0 -1.53125 0.53125q-0.5625 0.515625 -0.71875 1.40625l-0.140625 0.953125l1.921875 0l-0.125 0.765625l-1.921875 0l-1.328125 7.6875l-0.9375 0zm5.328125 0l-0.9375 0l1.484375 -8.453125l0.921875 0l-1.46875 8.453125zm5.8984375 0.15625q-1.015625 -0.015625 -1.765625 -0.5625q-0.734375 -0.5625 -1.09375 -1.5q-0.34375 -0.953125 -0.234375 -2.0625l0.015625 -0.265625q0.109375 -1.171875 0.6875 -2.21875q0.59375 -1.0625 1.484375 -1.625q0.90625 -0.5625 1.9375 -0.53125q0.9375 0.015625 1.59375 0.515625q0.65625 0.5 0.953125 1.390625q0.296875 0.890625 0.1875 1.96875l-0.0625 0.5625l-5.859375 0l-0.015625 0.1875q-0.125 0.859375 0.109375 1.640625q0.25 0.765625 0.796875 1.234375q0.5625 0.453125 1.328125 0.46875q0.75 0.015625 1.34375 -0.296875q0.609375 -0.3125 1.125 -0.828125l0.546875 0.4375q-0.578125 0.734375 -1.359375 1.125q-0.78125 0.375 -1.71875 0.359375zm0.984375 -7.96875q-1.015625 -0.046875 -1.828125 0.71875q-0.796875 0.75 -1.203125 2.125l4.90625 0.015625l0.015625 -0.125q0.140625 -1.109375 -0.390625 -1.90625q-0.53125 -0.796875 -1.5 -0.828125zm8.921875 0.140625q-0.3125 -0.0625 -0.625 -0.0625q-0.890625 0 -1.640625 0.546875q-0.734375 0.53125 -0.984375 1.375l-1.0 5.8125l-0.921875 0l1.46875 -8.453125l0.921875 0l-0.28125 1.34375q0.453125 -0.75 1.109375 -1.140625q0.65625 -0.390625 1.4375 -0.375q0.265625 0 0.640625 0.109375l-0.125 0.84375z" fill-rule="nonzero"/><path fill="#000000" fill-opacity="0.0" d="m198.40976 188.13155l-63.968506 22.29921" fill-rule="evenodd"/><path stroke="#000000" stroke-width="1.0" stroke-linejoin="round" stroke-linecap="butt" d="m198.40976 188.13155l-63.968506 22.29921" fill-rule="evenodd"/><path fill="#000000" fill-opacity="0.0" d="m289.1445 195.94788l-26.047241 96.8504" fill-rule="evenodd"/><path stroke="#ff0000" stroke-width="1.0" stroke-linejoin="round" stroke-linecap="butt" d="m289.1445 195.94788l-26.047241 96.8504" fill-rule="evenodd"/><path fill="#000000" fill-opacity="0.0" d="m713.1061 188.11862l-0.03149414 101.29132" fill-rule="evenodd"/><path stroke="#9900ff" stroke-width="1.0" stroke-linejoin="round" stroke-linecap="butt" d="m713.1061 188.11862l-0.03149414 101.29132" fill-rule="evenodd"/><path fill="#000000" fill-opacity="0.0" d="m452.0261 73.21481l-54.26773 66.96063" fill-rule="evenodd"/><path stroke="#4a86e8" stroke-width="1.0" stroke-linejoin="round" stroke-linecap="butt" d="m452.0261 73.21481l-54.26773 66.96063" fill-rule="evenodd"/></g></svg>